<?xml version="1.0" encoding="utf-8" standalone="no"?>
<!DOCTYPE svg PUBLIC "-//W3C//DTD SVG 1.1//EN"
  "http://www.w3.org/Graphics/SVG/1.1/DTD/svg11.dtd">
<svg xmlns:xlink="http://www.w3.org/1999/xlink" width="1000.829375pt" height="569.306875pt" viewBox="0 0 1000.829375 569.306875" xmlns="http://www.w3.org/2000/svg" version="1.1">
 <metadata>
  <rdf:RDF xmlns:dc="http://purl.org/dc/elements/1.1/" xmlns:cc="http://creativecommons.org/ns#" xmlns:rdf="http://www.w3.org/1999/02/22-rdf-syntax-ns#">
   <cc:Work>
    <dc:type rdf:resource="http://purl.org/dc/dcmitype/StillImage"/>
    <dc:date>2025-05-16T18:36:21.871315</dc:date>
    <dc:format>image/svg+xml</dc:format>
    <dc:creator>
     <cc:Agent>
      <dc:title>Matplotlib v3.9.2, https://matplotlib.org/</dc:title>
     </cc:Agent>
    </dc:creator>
   </cc:Work>
  </rdf:RDF>
 </metadata>
 <defs>
  <style type="text/css">*{stroke-linejoin: round; stroke-linecap: butt}</style>
 </defs>
 <g id="figure_1">
  <g id="patch_1">
   <path d="M 0 569.306875 
L 1000.829375 569.306875 
L 1000.829375 0 
L 0 0 
z
" style="fill: #ffffff"/>
  </g>
  <g id="axes_1">
   <g id="patch_2">
    <path d="M 57.199375 544.5575 
L 993.629375 544.5575 
L 993.629375 25.3575 
L 57.199375 25.3575 
z
" style="fill: #ffffff"/>
   </g>
   <g id="matplotlib.axis_1">
    <g id="text_1">
     <!-- Species (Rank Order) -->
     <g transform="translate(451.180469 559.195313) scale(0.14 -0.14)">
      <defs>
       <path id="DejaVuSans-53" d="M 3425 4513 
L 3425 3897 
Q 3066 4069 2747 4153 
Q 2428 4238 2131 4238 
Q 1616 4238 1336 4038 
Q 1056 3838 1056 3469 
Q 1056 3159 1242 3001 
Q 1428 2844 1947 2747 
L 2328 2669 
Q 3034 2534 3370 2195 
Q 3706 1856 3706 1288 
Q 3706 609 3251 259 
Q 2797 -91 1919 -91 
Q 1588 -91 1214 -16 
Q 841 59 441 206 
L 441 856 
Q 825 641 1194 531 
Q 1563 422 1919 422 
Q 2459 422 2753 634 
Q 3047 847 3047 1241 
Q 3047 1584 2836 1778 
Q 2625 1972 2144 2069 
L 1759 2144 
Q 1053 2284 737 2584 
Q 422 2884 422 3419 
Q 422 4038 858 4394 
Q 1294 4750 2059 4750 
Q 2388 4750 2728 4690 
Q 3069 4631 3425 4513 
z
" transform="scale(0.015625)"/>
       <path id="DejaVuSans-70" d="M 1159 525 
L 1159 -1331 
L 581 -1331 
L 581 3500 
L 1159 3500 
L 1159 2969 
Q 1341 3281 1617 3432 
Q 1894 3584 2278 3584 
Q 2916 3584 3314 3078 
Q 3713 2572 3713 1747 
Q 3713 922 3314 415 
Q 2916 -91 2278 -91 
Q 1894 -91 1617 61 
Q 1341 213 1159 525 
z
M 3116 1747 
Q 3116 2381 2855 2742 
Q 2594 3103 2138 3103 
Q 1681 3103 1420 2742 
Q 1159 2381 1159 1747 
Q 1159 1113 1420 752 
Q 1681 391 2138 391 
Q 2594 391 2855 752 
Q 3116 1113 3116 1747 
z
" transform="scale(0.015625)"/>
       <path id="DejaVuSans-65" d="M 3597 1894 
L 3597 1613 
L 953 1613 
Q 991 1019 1311 708 
Q 1631 397 2203 397 
Q 2534 397 2845 478 
Q 3156 559 3463 722 
L 3463 178 
Q 3153 47 2828 -22 
Q 2503 -91 2169 -91 
Q 1331 -91 842 396 
Q 353 884 353 1716 
Q 353 2575 817 3079 
Q 1281 3584 2069 3584 
Q 2775 3584 3186 3129 
Q 3597 2675 3597 1894 
z
M 3022 2063 
Q 3016 2534 2758 2815 
Q 2500 3097 2075 3097 
Q 1594 3097 1305 2825 
Q 1016 2553 972 2059 
L 3022 2063 
z
" transform="scale(0.015625)"/>
       <path id="DejaVuSans-63" d="M 3122 3366 
L 3122 2828 
Q 2878 2963 2633 3030 
Q 2388 3097 2138 3097 
Q 1578 3097 1268 2742 
Q 959 2388 959 1747 
Q 959 1106 1268 751 
Q 1578 397 2138 397 
Q 2388 397 2633 464 
Q 2878 531 3122 666 
L 3122 134 
Q 2881 22 2623 -34 
Q 2366 -91 2075 -91 
Q 1284 -91 818 406 
Q 353 903 353 1747 
Q 353 2603 823 3093 
Q 1294 3584 2113 3584 
Q 2378 3584 2631 3529 
Q 2884 3475 3122 3366 
z
" transform="scale(0.015625)"/>
       <path id="DejaVuSans-69" d="M 603 3500 
L 1178 3500 
L 1178 0 
L 603 0 
L 603 3500 
z
M 603 4863 
L 1178 4863 
L 1178 4134 
L 603 4134 
L 603 4863 
z
" transform="scale(0.015625)"/>
       <path id="DejaVuSans-73" d="M 2834 3397 
L 2834 2853 
Q 2591 2978 2328 3040 
Q 2066 3103 1784 3103 
Q 1356 3103 1142 2972 
Q 928 2841 928 2578 
Q 928 2378 1081 2264 
Q 1234 2150 1697 2047 
L 1894 2003 
Q 2506 1872 2764 1633 
Q 3022 1394 3022 966 
Q 3022 478 2636 193 
Q 2250 -91 1575 -91 
Q 1294 -91 989 -36 
Q 684 19 347 128 
L 347 722 
Q 666 556 975 473 
Q 1284 391 1588 391 
Q 1994 391 2212 530 
Q 2431 669 2431 922 
Q 2431 1156 2273 1281 
Q 2116 1406 1581 1522 
L 1381 1569 
Q 847 1681 609 1914 
Q 372 2147 372 2553 
Q 372 3047 722 3315 
Q 1072 3584 1716 3584 
Q 2034 3584 2315 3537 
Q 2597 3491 2834 3397 
z
" transform="scale(0.015625)"/>
       <path id="DejaVuSans-20" transform="scale(0.015625)"/>
       <path id="DejaVuSans-28" d="M 1984 4856 
Q 1566 4138 1362 3434 
Q 1159 2731 1159 2009 
Q 1159 1288 1364 580 
Q 1569 -128 1984 -844 
L 1484 -844 
Q 1016 -109 783 600 
Q 550 1309 550 2009 
Q 550 2706 781 3412 
Q 1013 4119 1484 4856 
L 1984 4856 
z
" transform="scale(0.015625)"/>
       <path id="DejaVuSans-52" d="M 2841 2188 
Q 3044 2119 3236 1894 
Q 3428 1669 3622 1275 
L 4263 0 
L 3584 0 
L 2988 1197 
Q 2756 1666 2539 1819 
Q 2322 1972 1947 1972 
L 1259 1972 
L 1259 0 
L 628 0 
L 628 4666 
L 2053 4666 
Q 2853 4666 3247 4331 
Q 3641 3997 3641 3322 
Q 3641 2881 3436 2590 
Q 3231 2300 2841 2188 
z
M 1259 4147 
L 1259 2491 
L 2053 2491 
Q 2509 2491 2742 2702 
Q 2975 2913 2975 3322 
Q 2975 3731 2742 3939 
Q 2509 4147 2053 4147 
L 1259 4147 
z
" transform="scale(0.015625)"/>
       <path id="DejaVuSans-61" d="M 2194 1759 
Q 1497 1759 1228 1600 
Q 959 1441 959 1056 
Q 959 750 1161 570 
Q 1363 391 1709 391 
Q 2188 391 2477 730 
Q 2766 1069 2766 1631 
L 2766 1759 
L 2194 1759 
z
M 3341 1997 
L 3341 0 
L 2766 0 
L 2766 531 
Q 2569 213 2275 61 
Q 1981 -91 1556 -91 
Q 1019 -91 701 211 
Q 384 513 384 1019 
Q 384 1609 779 1909 
Q 1175 2209 1959 2209 
L 2766 2209 
L 2766 2266 
Q 2766 2663 2505 2880 
Q 2244 3097 1772 3097 
Q 1472 3097 1187 3025 
Q 903 2953 641 2809 
L 641 3341 
Q 956 3463 1253 3523 
Q 1550 3584 1831 3584 
Q 2591 3584 2966 3190 
Q 3341 2797 3341 1997 
z
" transform="scale(0.015625)"/>
       <path id="DejaVuSans-6e" d="M 3513 2113 
L 3513 0 
L 2938 0 
L 2938 2094 
Q 2938 2591 2744 2837 
Q 2550 3084 2163 3084 
Q 1697 3084 1428 2787 
Q 1159 2491 1159 1978 
L 1159 0 
L 581 0 
L 581 3500 
L 1159 3500 
L 1159 2956 
Q 1366 3272 1645 3428 
Q 1925 3584 2291 3584 
Q 2894 3584 3203 3211 
Q 3513 2838 3513 2113 
z
" transform="scale(0.015625)"/>
       <path id="DejaVuSans-6b" d="M 581 4863 
L 1159 4863 
L 1159 1991 
L 2875 3500 
L 3609 3500 
L 1753 1863 
L 3688 0 
L 2938 0 
L 1159 1709 
L 1159 0 
L 581 0 
L 581 4863 
z
" transform="scale(0.015625)"/>
       <path id="DejaVuSans-4f" d="M 2522 4238 
Q 1834 4238 1429 3725 
Q 1025 3213 1025 2328 
Q 1025 1447 1429 934 
Q 1834 422 2522 422 
Q 3209 422 3611 934 
Q 4013 1447 4013 2328 
Q 4013 3213 3611 3725 
Q 3209 4238 2522 4238 
z
M 2522 4750 
Q 3503 4750 4090 4092 
Q 4678 3434 4678 2328 
Q 4678 1225 4090 567 
Q 3503 -91 2522 -91 
Q 1538 -91 948 565 
Q 359 1222 359 2328 
Q 359 3434 948 4092 
Q 1538 4750 2522 4750 
z
" transform="scale(0.015625)"/>
       <path id="DejaVuSans-72" d="M 2631 2963 
Q 2534 3019 2420 3045 
Q 2306 3072 2169 3072 
Q 1681 3072 1420 2755 
Q 1159 2438 1159 1844 
L 1159 0 
L 581 0 
L 581 3500 
L 1159 3500 
L 1159 2956 
Q 1341 3275 1631 3429 
Q 1922 3584 2338 3584 
Q 2397 3584 2469 3576 
Q 2541 3569 2628 3553 
L 2631 2963 
z
" transform="scale(0.015625)"/>
       <path id="DejaVuSans-64" d="M 2906 2969 
L 2906 4863 
L 3481 4863 
L 3481 0 
L 2906 0 
L 2906 525 
Q 2725 213 2448 61 
Q 2172 -91 1784 -91 
Q 1150 -91 751 415 
Q 353 922 353 1747 
Q 353 2572 751 3078 
Q 1150 3584 1784 3584 
Q 2172 3584 2448 3432 
Q 2725 3281 2906 2969 
z
M 947 1747 
Q 947 1113 1208 752 
Q 1469 391 1925 391 
Q 2381 391 2643 752 
Q 2906 1113 2906 1747 
Q 2906 2381 2643 2742 
Q 2381 3103 1925 3103 
Q 1469 3103 1208 2742 
Q 947 2381 947 1747 
z
" transform="scale(0.015625)"/>
       <path id="DejaVuSans-29" d="M 513 4856 
L 1013 4856 
Q 1481 4119 1714 3412 
Q 1947 2706 1947 2009 
Q 1947 1309 1714 600 
Q 1481 -109 1013 -844 
L 513 -844 
Q 928 -128 1133 580 
Q 1338 1288 1338 2009 
Q 1338 2731 1133 3434 
Q 928 4138 513 4856 
z
" transform="scale(0.015625)"/>
      </defs>
      <use xlink:href="#DejaVuSans-53"/>
      <use xlink:href="#DejaVuSans-70" x="63.476562"/>
      <use xlink:href="#DejaVuSans-65" x="126.953125"/>
      <use xlink:href="#DejaVuSans-63" x="188.476562"/>
      <use xlink:href="#DejaVuSans-69" x="243.457031"/>
      <use xlink:href="#DejaVuSans-65" x="271.240234"/>
      <use xlink:href="#DejaVuSans-73" x="332.763672"/>
      <use xlink:href="#DejaVuSans-20" x="384.863281"/>
      <use xlink:href="#DejaVuSans-28" x="416.650391"/>
      <use xlink:href="#DejaVuSans-52" x="455.664062"/>
      <use xlink:href="#DejaVuSans-61" x="522.896484"/>
      <use xlink:href="#DejaVuSans-6e" x="584.175781"/>
      <use xlink:href="#DejaVuSans-6b" x="647.554688"/>
      <use xlink:href="#DejaVuSans-20" x="705.464844"/>
      <use xlink:href="#DejaVuSans-4f" x="737.251953"/>
      <use xlink:href="#DejaVuSans-72" x="815.962891"/>
      <use xlink:href="#DejaVuSans-64" x="855.326172"/>
      <use xlink:href="#DejaVuSans-65" x="918.802734"/>
      <use xlink:href="#DejaVuSans-72" x="980.326172"/>
      <use xlink:href="#DejaVuSans-29" x="1021.439453"/>
     </g>
    </g>
   </g>
   <g id="matplotlib.axis_2">
    <g id="ytick_1">
     <g id="line2d_1">
      <path d="M 57.199375 521.160336 
L 993.629375 521.160336 
" clip-path="url(#p0a8cdfe144)" style="fill: none; stroke-dasharray: 2.96,1.28; stroke-dashoffset: 0; stroke: #b0b0b0; stroke-opacity: 0.7; stroke-width: 0.8"/>
     </g>
     <g id="line2d_2">
      <defs>
       <path id="mac72c867a8" d="M 0 0 
L -3.5 0 
" style="stroke: #000000; stroke-width: 0.8"/>
      </defs>
      <g>
       <use xlink:href="#mac72c867a8" x="57.199375" y="521.160336" style="stroke: #000000; stroke-width: 0.8"/>
      </g>
     </g>
     <g id="text_2">
      <!-- 0 -->
      <g transform="translate(43.836875 524.959555) scale(0.1 -0.1)">
       <defs>
        <path id="DejaVuSans-30" d="M 2034 4250 
Q 1547 4250 1301 3770 
Q 1056 3291 1056 2328 
Q 1056 1369 1301 889 
Q 1547 409 2034 409 
Q 2525 409 2770 889 
Q 3016 1369 3016 2328 
Q 3016 3291 2770 3770 
Q 2525 4250 2034 4250 
z
M 2034 4750 
Q 2819 4750 3233 4129 
Q 3647 3509 3647 2328 
Q 3647 1150 3233 529 
Q 2819 -91 2034 -91 
Q 1250 -91 836 529 
Q 422 1150 422 2328 
Q 422 3509 836 4129 
Q 1250 4750 2034 4750 
z
" transform="scale(0.015625)"/>
       </defs>
       <use xlink:href="#DejaVuSans-30"/>
      </g>
     </g>
    </g>
    <g id="ytick_2">
     <g id="line2d_3">
      <path d="M 57.199375 419.742201 
L 993.629375 419.742201 
" clip-path="url(#p0a8cdfe144)" style="fill: none; stroke-dasharray: 2.96,1.28; stroke-dashoffset: 0; stroke: #b0b0b0; stroke-opacity: 0.7; stroke-width: 0.8"/>
     </g>
     <g id="line2d_4">
      <g>
       <use xlink:href="#mac72c867a8" x="57.199375" y="419.742201" style="stroke: #000000; stroke-width: 0.8"/>
      </g>
     </g>
     <g id="text_3">
      <!-- 500 -->
      <g transform="translate(31.111875 423.54142) scale(0.1 -0.1)">
       <defs>
        <path id="DejaVuSans-35" d="M 691 4666 
L 3169 4666 
L 3169 4134 
L 1269 4134 
L 1269 2991 
Q 1406 3038 1543 3061 
Q 1681 3084 1819 3084 
Q 2600 3084 3056 2656 
Q 3513 2228 3513 1497 
Q 3513 744 3044 326 
Q 2575 -91 1722 -91 
Q 1428 -91 1123 -41 
Q 819 9 494 109 
L 494 744 
Q 775 591 1075 516 
Q 1375 441 1709 441 
Q 2250 441 2565 725 
Q 2881 1009 2881 1497 
Q 2881 1984 2565 2268 
Q 2250 2553 1709 2553 
Q 1456 2553 1204 2497 
Q 953 2441 691 2322 
L 691 4666 
z
" transform="scale(0.015625)"/>
       </defs>
       <use xlink:href="#DejaVuSans-35"/>
       <use xlink:href="#DejaVuSans-30" x="63.623047"/>
       <use xlink:href="#DejaVuSans-30" x="127.246094"/>
      </g>
     </g>
    </g>
    <g id="ytick_3">
     <g id="line2d_5">
      <path d="M 57.199375 318.324066 
L 993.629375 318.324066 
" clip-path="url(#p0a8cdfe144)" style="fill: none; stroke-dasharray: 2.96,1.28; stroke-dashoffset: 0; stroke: #b0b0b0; stroke-opacity: 0.7; stroke-width: 0.8"/>
     </g>
     <g id="line2d_6">
      <g>
       <use xlink:href="#mac72c867a8" x="57.199375" y="318.324066" style="stroke: #000000; stroke-width: 0.8"/>
      </g>
     </g>
     <g id="text_4">
      <!-- 1000 -->
      <g transform="translate(24.749375 322.123285) scale(0.1 -0.1)">
       <defs>
        <path id="DejaVuSans-31" d="M 794 531 
L 1825 531 
L 1825 4091 
L 703 3866 
L 703 4441 
L 1819 4666 
L 2450 4666 
L 2450 531 
L 3481 531 
L 3481 0 
L 794 0 
L 794 531 
z
" transform="scale(0.015625)"/>
       </defs>
       <use xlink:href="#DejaVuSans-31"/>
       <use xlink:href="#DejaVuSans-30" x="63.623047"/>
       <use xlink:href="#DejaVuSans-30" x="127.246094"/>
       <use xlink:href="#DejaVuSans-30" x="190.869141"/>
      </g>
     </g>
    </g>
    <g id="ytick_4">
     <g id="line2d_7">
      <path d="M 57.199375 216.905931 
L 993.629375 216.905931 
" clip-path="url(#p0a8cdfe144)" style="fill: none; stroke-dasharray: 2.96,1.28; stroke-dashoffset: 0; stroke: #b0b0b0; stroke-opacity: 0.7; stroke-width: 0.8"/>
     </g>
     <g id="line2d_8">
      <g>
       <use xlink:href="#mac72c867a8" x="57.199375" y="216.905931" style="stroke: #000000; stroke-width: 0.8"/>
      </g>
     </g>
     <g id="text_5">
      <!-- 1500 -->
      <g transform="translate(24.749375 220.70515) scale(0.1 -0.1)">
       <use xlink:href="#DejaVuSans-31"/>
       <use xlink:href="#DejaVuSans-35" x="63.623047"/>
       <use xlink:href="#DejaVuSans-30" x="127.246094"/>
       <use xlink:href="#DejaVuSans-30" x="190.869141"/>
      </g>
     </g>
    </g>
    <g id="ytick_5">
     <g id="line2d_9">
      <path d="M 57.199375 115.487797 
L 993.629375 115.487797 
" clip-path="url(#p0a8cdfe144)" style="fill: none; stroke-dasharray: 2.96,1.28; stroke-dashoffset: 0; stroke: #b0b0b0; stroke-opacity: 0.7; stroke-width: 0.8"/>
     </g>
     <g id="line2d_10">
      <g>
       <use xlink:href="#mac72c867a8" x="57.199375" y="115.487797" style="stroke: #000000; stroke-width: 0.8"/>
      </g>
     </g>
     <g id="text_6">
      <!-- 2000 -->
      <g transform="translate(24.749375 119.287015) scale(0.1 -0.1)">
       <defs>
        <path id="DejaVuSans-32" d="M 1228 531 
L 3431 531 
L 3431 0 
L 469 0 
L 469 531 
Q 828 903 1448 1529 
Q 2069 2156 2228 2338 
Q 2531 2678 2651 2914 
Q 2772 3150 2772 3378 
Q 2772 3750 2511 3984 
Q 2250 4219 1831 4219 
Q 1534 4219 1204 4116 
Q 875 4013 500 3803 
L 500 4441 
Q 881 4594 1212 4672 
Q 1544 4750 1819 4750 
Q 2544 4750 2975 4387 
Q 3406 4025 3406 3419 
Q 3406 3131 3298 2873 
Q 3191 2616 2906 2266 
Q 2828 2175 2409 1742 
Q 1991 1309 1228 531 
z
" transform="scale(0.015625)"/>
       </defs>
       <use xlink:href="#DejaVuSans-32"/>
       <use xlink:href="#DejaVuSans-30" x="63.623047"/>
       <use xlink:href="#DejaVuSans-30" x="127.246094"/>
       <use xlink:href="#DejaVuSans-30" x="190.869141"/>
      </g>
     </g>
    </g>
    <g id="text_7">
     <!-- Number of Images -->
     <g transform="translate(17.837813 349.845313) rotate(-90) scale(0.14 -0.14)">
      <defs>
       <path id="DejaVuSans-4e" d="M 628 4666 
L 1478 4666 
L 3547 763 
L 3547 4666 
L 4159 4666 
L 4159 0 
L 3309 0 
L 1241 3903 
L 1241 0 
L 628 0 
L 628 4666 
z
" transform="scale(0.015625)"/>
       <path id="DejaVuSans-75" d="M 544 1381 
L 544 3500 
L 1119 3500 
L 1119 1403 
Q 1119 906 1312 657 
Q 1506 409 1894 409 
Q 2359 409 2629 706 
Q 2900 1003 2900 1516 
L 2900 3500 
L 3475 3500 
L 3475 0 
L 2900 0 
L 2900 538 
Q 2691 219 2414 64 
Q 2138 -91 1772 -91 
Q 1169 -91 856 284 
Q 544 659 544 1381 
z
M 1991 3584 
L 1991 3584 
z
" transform="scale(0.015625)"/>
       <path id="DejaVuSans-6d" d="M 3328 2828 
Q 3544 3216 3844 3400 
Q 4144 3584 4550 3584 
Q 5097 3584 5394 3201 
Q 5691 2819 5691 2113 
L 5691 0 
L 5113 0 
L 5113 2094 
Q 5113 2597 4934 2840 
Q 4756 3084 4391 3084 
Q 3944 3084 3684 2787 
Q 3425 2491 3425 1978 
L 3425 0 
L 2847 0 
L 2847 2094 
Q 2847 2600 2669 2842 
Q 2491 3084 2119 3084 
Q 1678 3084 1418 2786 
Q 1159 2488 1159 1978 
L 1159 0 
L 581 0 
L 581 3500 
L 1159 3500 
L 1159 2956 
Q 1356 3278 1631 3431 
Q 1906 3584 2284 3584 
Q 2666 3584 2933 3390 
Q 3200 3197 3328 2828 
z
" transform="scale(0.015625)"/>
       <path id="DejaVuSans-62" d="M 3116 1747 
Q 3116 2381 2855 2742 
Q 2594 3103 2138 3103 
Q 1681 3103 1420 2742 
Q 1159 2381 1159 1747 
Q 1159 1113 1420 752 
Q 1681 391 2138 391 
Q 2594 391 2855 752 
Q 3116 1113 3116 1747 
z
M 1159 2969 
Q 1341 3281 1617 3432 
Q 1894 3584 2278 3584 
Q 2916 3584 3314 3078 
Q 3713 2572 3713 1747 
Q 3713 922 3314 415 
Q 2916 -91 2278 -91 
Q 1894 -91 1617 61 
Q 1341 213 1159 525 
L 1159 0 
L 581 0 
L 581 4863 
L 1159 4863 
L 1159 2969 
z
" transform="scale(0.015625)"/>
       <path id="DejaVuSans-6f" d="M 1959 3097 
Q 1497 3097 1228 2736 
Q 959 2375 959 1747 
Q 959 1119 1226 758 
Q 1494 397 1959 397 
Q 2419 397 2687 759 
Q 2956 1122 2956 1747 
Q 2956 2369 2687 2733 
Q 2419 3097 1959 3097 
z
M 1959 3584 
Q 2709 3584 3137 3096 
Q 3566 2609 3566 1747 
Q 3566 888 3137 398 
Q 2709 -91 1959 -91 
Q 1206 -91 779 398 
Q 353 888 353 1747 
Q 353 2609 779 3096 
Q 1206 3584 1959 3584 
z
" transform="scale(0.015625)"/>
       <path id="DejaVuSans-66" d="M 2375 4863 
L 2375 4384 
L 1825 4384 
Q 1516 4384 1395 4259 
Q 1275 4134 1275 3809 
L 1275 3500 
L 2222 3500 
L 2222 3053 
L 1275 3053 
L 1275 0 
L 697 0 
L 697 3053 
L 147 3053 
L 147 3500 
L 697 3500 
L 697 3744 
Q 697 4328 969 4595 
Q 1241 4863 1831 4863 
L 2375 4863 
z
" transform="scale(0.015625)"/>
       <path id="DejaVuSans-49" d="M 628 4666 
L 1259 4666 
L 1259 0 
L 628 0 
L 628 4666 
z
" transform="scale(0.015625)"/>
       <path id="DejaVuSans-67" d="M 2906 1791 
Q 2906 2416 2648 2759 
Q 2391 3103 1925 3103 
Q 1463 3103 1205 2759 
Q 947 2416 947 1791 
Q 947 1169 1205 825 
Q 1463 481 1925 481 
Q 2391 481 2648 825 
Q 2906 1169 2906 1791 
z
M 3481 434 
Q 3481 -459 3084 -895 
Q 2688 -1331 1869 -1331 
Q 1566 -1331 1297 -1286 
Q 1028 -1241 775 -1147 
L 775 -588 
Q 1028 -725 1275 -790 
Q 1522 -856 1778 -856 
Q 2344 -856 2625 -561 
Q 2906 -266 2906 331 
L 2906 616 
Q 2728 306 2450 153 
Q 2172 0 1784 0 
Q 1141 0 747 490 
Q 353 981 353 1791 
Q 353 2603 747 3093 
Q 1141 3584 1784 3584 
Q 2172 3584 2450 3431 
Q 2728 3278 2906 2969 
L 2906 3500 
L 3481 3500 
L 3481 434 
z
" transform="scale(0.015625)"/>
      </defs>
      <use xlink:href="#DejaVuSans-4e"/>
      <use xlink:href="#DejaVuSans-75" x="74.804688"/>
      <use xlink:href="#DejaVuSans-6d" x="138.183594"/>
      <use xlink:href="#DejaVuSans-62" x="235.595703"/>
      <use xlink:href="#DejaVuSans-65" x="299.072266"/>
      <use xlink:href="#DejaVuSans-72" x="360.595703"/>
      <use xlink:href="#DejaVuSans-20" x="401.708984"/>
      <use xlink:href="#DejaVuSans-6f" x="433.496094"/>
      <use xlink:href="#DejaVuSans-66" x="494.677734"/>
      <use xlink:href="#DejaVuSans-20" x="529.882812"/>
      <use xlink:href="#DejaVuSans-49" x="561.669922"/>
      <use xlink:href="#DejaVuSans-6d" x="591.162109"/>
      <use xlink:href="#DejaVuSans-61" x="688.574219"/>
      <use xlink:href="#DejaVuSans-67" x="749.853516"/>
      <use xlink:href="#DejaVuSans-65" x="813.330078"/>
      <use xlink:href="#DejaVuSans-73" x="874.853516"/>
     </g>
    </g>
   </g>
   <g id="line2d_11">
    <path d="M 99.764375 48.9575 
L 103.837581 124.412592 
L 107.910786 178.569876 
L 111.983992 303.922691 
L 116.057198 403.5153 
L 120.130404 440.228665 
L 124.203609 450.978987 
L 128.276815 457.672584 
L 132.350021 463.149163 
L 136.423227 463.554836 
L 140.496432 463.757672 
L 144.569638 466.394543 
L 148.642844 470.451269 
L 152.71605 473.899485 
L 156.789255 481.404427 
L 160.862461 483.635626 
L 164.935667 484.852644 
L 169.008873 485.258317 
L 173.082078 486.069662 
L 177.155284 491.343405 
L 181.22849 491.749077 
L 185.301696 493.168931 
L 189.374901 495.197294 
L 193.448107 496.819984 
L 197.521313 497.02282 
L 201.594519 498.037002 
L 205.667724 499.862528 
L 209.74093 500.876709 
L 213.814136 500.876709 
L 217.887342 501.282382 
L 221.960547 501.485218 
L 226.033753 502.093727 
L 230.106959 502.093727 
L 234.180164 502.702236 
L 238.25337 503.107908 
L 242.326576 503.716417 
L 246.399782 504.12209 
L 250.472987 504.12209 
L 254.546193 504.324926 
L 258.619399 504.933435 
L 262.692605 504.933435 
L 266.76581 505.136271 
L 274.912222 505.947616 
L 283.058633 506.353289 
L 291.205045 507.570306 
L 299.351456 507.975979 
L 307.497868 507.975979 
L 311.571074 508.178815 
L 315.644279 508.178815 
L 319.717485 508.381651 
L 323.790691 508.787324 
L 327.863897 508.787324 
L 331.937102 509.395833 
L 336.010308 509.395833 
L 340.083514 509.801505 
L 344.156719 510.004341 
L 348.229925 510.004341 
L 364.522748 510.815687 
L 368.595954 511.221359 
L 372.66916 511.424195 
L 380.815571 511.424195 
L 388.961983 512.23554 
L 393.035188 512.438377 
L 397.108394 512.438377 
L 401.1816 512.844049 
L 409.328011 512.844049 
L 413.401217 513.249722 
L 417.474423 513.452558 
L 421.547629 513.452558 
L 425.620834 513.655394 
L 429.69404 513.655394 
L 433.767246 514.263903 
L 437.840452 514.263903 
L 441.913657 514.872412 
L 445.986863 515.075248 
L 450.060069 515.075248 
L 454.133275 515.278084 
L 458.20648 515.278084 
L 466.352892 515.683757 
L 478.572509 515.683757 
L 482.645715 515.886593 
L 486.71892 515.886593 
L 490.792126 516.08943 
L 507.084949 516.08943 
L 511.158155 516.292266 
L 519.304566 516.292266 
L 523.377772 516.495102 
L 527.450978 516.495102 
L 531.524184 516.697938 
L 535.597389 516.697938 
L 539.670595 517.103611 
L 572.256241 517.103611 
L 576.329447 517.306447 
L 612.988298 517.306447 
L 617.061504 517.509283 
L 637.427533 517.509283 
L 641.500739 517.71212 
L 661.866767 517.71212 
L 665.939973 517.914956 
L 702.598825 517.914956 
L 706.672031 518.117792 
L 755.550499 518.117792 
L 759.623705 518.320628 
L 784.06294 518.320628 
L 788.136145 518.523465 
L 820.721791 518.523465 
L 824.794997 518.726301 
L 849.234231 518.726301 
L 853.307437 518.929137 
L 865.527054 518.929137 
L 869.60026 519.131974 
L 877.746672 519.131974 
L 881.819877 519.33481 
L 885.893083 519.33481 
L 889.966289 519.537646 
L 894.039495 519.943319 
L 902.185906 519.943319 
L 906.259112 520.146155 
L 914.405523 520.146155 
L 918.478729 520.348991 
L 926.625141 520.348991 
L 938.844758 520.9575 
L 951.064375 520.9575 
L 951.064375 520.9575 
" clip-path="url(#p0a8cdfe144)" style="fill: none; stroke: #1f77b4; stroke-width: 1.5; stroke-linecap: square"/>
    <defs>
     <path id="m54d49420a9" d="M 0 1.5 
C 0.397805 1.5 0.77937 1.341951 1.06066 1.06066 
C 1.341951 0.77937 1.5 0.397805 1.5 0 
C 1.5 -0.397805 1.341951 -0.77937 1.06066 -1.06066 
C 0.77937 -1.341951 0.397805 -1.5 0 -1.5 
C -0.397805 -1.5 -0.77937 -1.341951 -1.06066 -1.06066 
C -1.341951 -0.77937 -1.5 -0.397805 -1.5 0 
C -1.5 0.397805 -1.341951 0.77937 -1.06066 1.06066 
C -0.77937 1.341951 -0.397805 1.5 0 1.5 
z
" style="stroke: #1f77b4"/>
    </defs>
    <g clip-path="url(#p0a8cdfe144)">
     <use xlink:href="#m54d49420a9" x="99.764375" y="48.9575" style="fill: #1f77b4; stroke: #1f77b4"/>
     <use xlink:href="#m54d49420a9" x="103.837581" y="124.412592" style="fill: #1f77b4; stroke: #1f77b4"/>
     <use xlink:href="#m54d49420a9" x="107.910786" y="178.569876" style="fill: #1f77b4; stroke: #1f77b4"/>
     <use xlink:href="#m54d49420a9" x="111.983992" y="303.922691" style="fill: #1f77b4; stroke: #1f77b4"/>
     <use xlink:href="#m54d49420a9" x="116.057198" y="403.5153" style="fill: #1f77b4; stroke: #1f77b4"/>
     <use xlink:href="#m54d49420a9" x="120.130404" y="440.228665" style="fill: #1f77b4; stroke: #1f77b4"/>
     <use xlink:href="#m54d49420a9" x="124.203609" y="450.978987" style="fill: #1f77b4; stroke: #1f77b4"/>
     <use xlink:href="#m54d49420a9" x="128.276815" y="457.672584" style="fill: #1f77b4; stroke: #1f77b4"/>
     <use xlink:href="#m54d49420a9" x="132.350021" y="463.149163" style="fill: #1f77b4; stroke: #1f77b4"/>
     <use xlink:href="#m54d49420a9" x="136.423227" y="463.554836" style="fill: #1f77b4; stroke: #1f77b4"/>
     <use xlink:href="#m54d49420a9" x="140.496432" y="463.757672" style="fill: #1f77b4; stroke: #1f77b4"/>
     <use xlink:href="#m54d49420a9" x="144.569638" y="466.394543" style="fill: #1f77b4; stroke: #1f77b4"/>
     <use xlink:href="#m54d49420a9" x="148.642844" y="470.451269" style="fill: #1f77b4; stroke: #1f77b4"/>
     <use xlink:href="#m54d49420a9" x="152.71605" y="473.899485" style="fill: #1f77b4; stroke: #1f77b4"/>
     <use xlink:href="#m54d49420a9" x="156.789255" y="481.404427" style="fill: #1f77b4; stroke: #1f77b4"/>
     <use xlink:href="#m54d49420a9" x="160.862461" y="483.635626" style="fill: #1f77b4; stroke: #1f77b4"/>
     <use xlink:href="#m54d49420a9" x="164.935667" y="484.852644" style="fill: #1f77b4; stroke: #1f77b4"/>
     <use xlink:href="#m54d49420a9" x="169.008873" y="485.258317" style="fill: #1f77b4; stroke: #1f77b4"/>
     <use xlink:href="#m54d49420a9" x="173.082078" y="486.069662" style="fill: #1f77b4; stroke: #1f77b4"/>
     <use xlink:href="#m54d49420a9" x="177.155284" y="491.343405" style="fill: #1f77b4; stroke: #1f77b4"/>
     <use xlink:href="#m54d49420a9" x="181.22849" y="491.749077" style="fill: #1f77b4; stroke: #1f77b4"/>
     <use xlink:href="#m54d49420a9" x="185.301696" y="493.168931" style="fill: #1f77b4; stroke: #1f77b4"/>
     <use xlink:href="#m54d49420a9" x="189.374901" y="495.197294" style="fill: #1f77b4; stroke: #1f77b4"/>
     <use xlink:href="#m54d49420a9" x="193.448107" y="496.819984" style="fill: #1f77b4; stroke: #1f77b4"/>
     <use xlink:href="#m54d49420a9" x="197.521313" y="497.02282" style="fill: #1f77b4; stroke: #1f77b4"/>
     <use xlink:href="#m54d49420a9" x="201.594519" y="498.037002" style="fill: #1f77b4; stroke: #1f77b4"/>
     <use xlink:href="#m54d49420a9" x="205.667724" y="499.862528" style="fill: #1f77b4; stroke: #1f77b4"/>
     <use xlink:href="#m54d49420a9" x="209.74093" y="500.876709" style="fill: #1f77b4; stroke: #1f77b4"/>
     <use xlink:href="#m54d49420a9" x="213.814136" y="500.876709" style="fill: #1f77b4; stroke: #1f77b4"/>
     <use xlink:href="#m54d49420a9" x="217.887342" y="501.282382" style="fill: #1f77b4; stroke: #1f77b4"/>
     <use xlink:href="#m54d49420a9" x="221.960547" y="501.485218" style="fill: #1f77b4; stroke: #1f77b4"/>
     <use xlink:href="#m54d49420a9" x="226.033753" y="502.093727" style="fill: #1f77b4; stroke: #1f77b4"/>
     <use xlink:href="#m54d49420a9" x="230.106959" y="502.093727" style="fill: #1f77b4; stroke: #1f77b4"/>
     <use xlink:href="#m54d49420a9" x="234.180164" y="502.702236" style="fill: #1f77b4; stroke: #1f77b4"/>
     <use xlink:href="#m54d49420a9" x="238.25337" y="503.107908" style="fill: #1f77b4; stroke: #1f77b4"/>
     <use xlink:href="#m54d49420a9" x="242.326576" y="503.716417" style="fill: #1f77b4; stroke: #1f77b4"/>
     <use xlink:href="#m54d49420a9" x="246.399782" y="504.12209" style="fill: #1f77b4; stroke: #1f77b4"/>
     <use xlink:href="#m54d49420a9" x="250.472987" y="504.12209" style="fill: #1f77b4; stroke: #1f77b4"/>
     <use xlink:href="#m54d49420a9" x="254.546193" y="504.324926" style="fill: #1f77b4; stroke: #1f77b4"/>
     <use xlink:href="#m54d49420a9" x="258.619399" y="504.933435" style="fill: #1f77b4; stroke: #1f77b4"/>
     <use xlink:href="#m54d49420a9" x="262.692605" y="504.933435" style="fill: #1f77b4; stroke: #1f77b4"/>
     <use xlink:href="#m54d49420a9" x="266.76581" y="505.136271" style="fill: #1f77b4; stroke: #1f77b4"/>
     <use xlink:href="#m54d49420a9" x="270.839016" y="505.541943" style="fill: #1f77b4; stroke: #1f77b4"/>
     <use xlink:href="#m54d49420a9" x="274.912222" y="505.947616" style="fill: #1f77b4; stroke: #1f77b4"/>
     <use xlink:href="#m54d49420a9" x="278.985428" y="506.150452" style="fill: #1f77b4; stroke: #1f77b4"/>
     <use xlink:href="#m54d49420a9" x="283.058633" y="506.353289" style="fill: #1f77b4; stroke: #1f77b4"/>
     <use xlink:href="#m54d49420a9" x="287.131839" y="506.961797" style="fill: #1f77b4; stroke: #1f77b4"/>
     <use xlink:href="#m54d49420a9" x="291.205045" y="507.570306" style="fill: #1f77b4; stroke: #1f77b4"/>
     <use xlink:href="#m54d49420a9" x="295.278251" y="507.773142" style="fill: #1f77b4; stroke: #1f77b4"/>
     <use xlink:href="#m54d49420a9" x="299.351456" y="507.975979" style="fill: #1f77b4; stroke: #1f77b4"/>
     <use xlink:href="#m54d49420a9" x="303.424662" y="507.975979" style="fill: #1f77b4; stroke: #1f77b4"/>
     <use xlink:href="#m54d49420a9" x="307.497868" y="507.975979" style="fill: #1f77b4; stroke: #1f77b4"/>
     <use xlink:href="#m54d49420a9" x="311.571074" y="508.178815" style="fill: #1f77b4; stroke: #1f77b4"/>
     <use xlink:href="#m54d49420a9" x="315.644279" y="508.178815" style="fill: #1f77b4; stroke: #1f77b4"/>
     <use xlink:href="#m54d49420a9" x="319.717485" y="508.381651" style="fill: #1f77b4; stroke: #1f77b4"/>
     <use xlink:href="#m54d49420a9" x="323.790691" y="508.787324" style="fill: #1f77b4; stroke: #1f77b4"/>
     <use xlink:href="#m54d49420a9" x="327.863897" y="508.787324" style="fill: #1f77b4; stroke: #1f77b4"/>
     <use xlink:href="#m54d49420a9" x="331.937102" y="509.395833" style="fill: #1f77b4; stroke: #1f77b4"/>
     <use xlink:href="#m54d49420a9" x="336.010308" y="509.395833" style="fill: #1f77b4; stroke: #1f77b4"/>
     <use xlink:href="#m54d49420a9" x="340.083514" y="509.801505" style="fill: #1f77b4; stroke: #1f77b4"/>
     <use xlink:href="#m54d49420a9" x="344.156719" y="510.004341" style="fill: #1f77b4; stroke: #1f77b4"/>
     <use xlink:href="#m54d49420a9" x="348.229925" y="510.004341" style="fill: #1f77b4; stroke: #1f77b4"/>
     <use xlink:href="#m54d49420a9" x="352.303131" y="510.207178" style="fill: #1f77b4; stroke: #1f77b4"/>
     <use xlink:href="#m54d49420a9" x="356.376337" y="510.410014" style="fill: #1f77b4; stroke: #1f77b4"/>
     <use xlink:href="#m54d49420a9" x="360.449542" y="510.61285" style="fill: #1f77b4; stroke: #1f77b4"/>
     <use xlink:href="#m54d49420a9" x="364.522748" y="510.815687" style="fill: #1f77b4; stroke: #1f77b4"/>
     <use xlink:href="#m54d49420a9" x="368.595954" y="511.221359" style="fill: #1f77b4; stroke: #1f77b4"/>
     <use xlink:href="#m54d49420a9" x="372.66916" y="511.424195" style="fill: #1f77b4; stroke: #1f77b4"/>
     <use xlink:href="#m54d49420a9" x="376.742365" y="511.424195" style="fill: #1f77b4; stroke: #1f77b4"/>
     <use xlink:href="#m54d49420a9" x="380.815571" y="511.424195" style="fill: #1f77b4; stroke: #1f77b4"/>
     <use xlink:href="#m54d49420a9" x="384.888777" y="511.829868" style="fill: #1f77b4; stroke: #1f77b4"/>
     <use xlink:href="#m54d49420a9" x="388.961983" y="512.23554" style="fill: #1f77b4; stroke: #1f77b4"/>
     <use xlink:href="#m54d49420a9" x="393.035188" y="512.438377" style="fill: #1f77b4; stroke: #1f77b4"/>
     <use xlink:href="#m54d49420a9" x="397.108394" y="512.438377" style="fill: #1f77b4; stroke: #1f77b4"/>
     <use xlink:href="#m54d49420a9" x="401.1816" y="512.844049" style="fill: #1f77b4; stroke: #1f77b4"/>
     <use xlink:href="#m54d49420a9" x="405.254806" y="512.844049" style="fill: #1f77b4; stroke: #1f77b4"/>
     <use xlink:href="#m54d49420a9" x="409.328011" y="512.844049" style="fill: #1f77b4; stroke: #1f77b4"/>
     <use xlink:href="#m54d49420a9" x="413.401217" y="513.249722" style="fill: #1f77b4; stroke: #1f77b4"/>
     <use xlink:href="#m54d49420a9" x="417.474423" y="513.452558" style="fill: #1f77b4; stroke: #1f77b4"/>
     <use xlink:href="#m54d49420a9" x="421.547629" y="513.452558" style="fill: #1f77b4; stroke: #1f77b4"/>
     <use xlink:href="#m54d49420a9" x="425.620834" y="513.655394" style="fill: #1f77b4; stroke: #1f77b4"/>
     <use xlink:href="#m54d49420a9" x="429.69404" y="513.655394" style="fill: #1f77b4; stroke: #1f77b4"/>
     <use xlink:href="#m54d49420a9" x="433.767246" y="514.263903" style="fill: #1f77b4; stroke: #1f77b4"/>
     <use xlink:href="#m54d49420a9" x="437.840452" y="514.263903" style="fill: #1f77b4; stroke: #1f77b4"/>
     <use xlink:href="#m54d49420a9" x="441.913657" y="514.872412" style="fill: #1f77b4; stroke: #1f77b4"/>
     <use xlink:href="#m54d49420a9" x="445.986863" y="515.075248" style="fill: #1f77b4; stroke: #1f77b4"/>
     <use xlink:href="#m54d49420a9" x="450.060069" y="515.075248" style="fill: #1f77b4; stroke: #1f77b4"/>
     <use xlink:href="#m54d49420a9" x="454.133275" y="515.278084" style="fill: #1f77b4; stroke: #1f77b4"/>
     <use xlink:href="#m54d49420a9" x="458.20648" y="515.278084" style="fill: #1f77b4; stroke: #1f77b4"/>
     <use xlink:href="#m54d49420a9" x="462.279686" y="515.480921" style="fill: #1f77b4; stroke: #1f77b4"/>
     <use xlink:href="#m54d49420a9" x="466.352892" y="515.683757" style="fill: #1f77b4; stroke: #1f77b4"/>
     <use xlink:href="#m54d49420a9" x="470.426097" y="515.683757" style="fill: #1f77b4; stroke: #1f77b4"/>
     <use xlink:href="#m54d49420a9" x="474.499303" y="515.683757" style="fill: #1f77b4; stroke: #1f77b4"/>
     <use xlink:href="#m54d49420a9" x="478.572509" y="515.683757" style="fill: #1f77b4; stroke: #1f77b4"/>
     <use xlink:href="#m54d49420a9" x="482.645715" y="515.886593" style="fill: #1f77b4; stroke: #1f77b4"/>
     <use xlink:href="#m54d49420a9" x="486.71892" y="515.886593" style="fill: #1f77b4; stroke: #1f77b4"/>
     <use xlink:href="#m54d49420a9" x="490.792126" y="516.08943" style="fill: #1f77b4; stroke: #1f77b4"/>
     <use xlink:href="#m54d49420a9" x="494.865332" y="516.08943" style="fill: #1f77b4; stroke: #1f77b4"/>
     <use xlink:href="#m54d49420a9" x="498.938538" y="516.08943" style="fill: #1f77b4; stroke: #1f77b4"/>
     <use xlink:href="#m54d49420a9" x="503.011743" y="516.08943" style="fill: #1f77b4; stroke: #1f77b4"/>
     <use xlink:href="#m54d49420a9" x="507.084949" y="516.08943" style="fill: #1f77b4; stroke: #1f77b4"/>
     <use xlink:href="#m54d49420a9" x="511.158155" y="516.292266" style="fill: #1f77b4; stroke: #1f77b4"/>
     <use xlink:href="#m54d49420a9" x="515.231361" y="516.292266" style="fill: #1f77b4; stroke: #1f77b4"/>
     <use xlink:href="#m54d49420a9" x="519.304566" y="516.292266" style="fill: #1f77b4; stroke: #1f77b4"/>
     <use xlink:href="#m54d49420a9" x="523.377772" y="516.495102" style="fill: #1f77b4; stroke: #1f77b4"/>
     <use xlink:href="#m54d49420a9" x="527.450978" y="516.495102" style="fill: #1f77b4; stroke: #1f77b4"/>
     <use xlink:href="#m54d49420a9" x="531.524184" y="516.697938" style="fill: #1f77b4; stroke: #1f77b4"/>
     <use xlink:href="#m54d49420a9" x="535.597389" y="516.697938" style="fill: #1f77b4; stroke: #1f77b4"/>
     <use xlink:href="#m54d49420a9" x="539.670595" y="517.103611" style="fill: #1f77b4; stroke: #1f77b4"/>
     <use xlink:href="#m54d49420a9" x="543.743801" y="517.103611" style="fill: #1f77b4; stroke: #1f77b4"/>
     <use xlink:href="#m54d49420a9" x="547.817007" y="517.103611" style="fill: #1f77b4; stroke: #1f77b4"/>
     <use xlink:href="#m54d49420a9" x="551.890212" y="517.103611" style="fill: #1f77b4; stroke: #1f77b4"/>
     <use xlink:href="#m54d49420a9" x="555.963418" y="517.103611" style="fill: #1f77b4; stroke: #1f77b4"/>
     <use xlink:href="#m54d49420a9" x="560.036624" y="517.103611" style="fill: #1f77b4; stroke: #1f77b4"/>
     <use xlink:href="#m54d49420a9" x="564.10983" y="517.103611" style="fill: #1f77b4; stroke: #1f77b4"/>
     <use xlink:href="#m54d49420a9" x="568.183035" y="517.103611" style="fill: #1f77b4; stroke: #1f77b4"/>
     <use xlink:href="#m54d49420a9" x="572.256241" y="517.103611" style="fill: #1f77b4; stroke: #1f77b4"/>
     <use xlink:href="#m54d49420a9" x="576.329447" y="517.306447" style="fill: #1f77b4; stroke: #1f77b4"/>
     <use xlink:href="#m54d49420a9" x="580.402653" y="517.306447" style="fill: #1f77b4; stroke: #1f77b4"/>
     <use xlink:href="#m54d49420a9" x="584.475858" y="517.306447" style="fill: #1f77b4; stroke: #1f77b4"/>
     <use xlink:href="#m54d49420a9" x="588.549064" y="517.306447" style="fill: #1f77b4; stroke: #1f77b4"/>
     <use xlink:href="#m54d49420a9" x="592.62227" y="517.306447" style="fill: #1f77b4; stroke: #1f77b4"/>
     <use xlink:href="#m54d49420a9" x="596.695475" y="517.306447" style="fill: #1f77b4; stroke: #1f77b4"/>
     <use xlink:href="#m54d49420a9" x="600.768681" y="517.306447" style="fill: #1f77b4; stroke: #1f77b4"/>
     <use xlink:href="#m54d49420a9" x="604.841887" y="517.306447" style="fill: #1f77b4; stroke: #1f77b4"/>
     <use xlink:href="#m54d49420a9" x="608.915093" y="517.306447" style="fill: #1f77b4; stroke: #1f77b4"/>
     <use xlink:href="#m54d49420a9" x="612.988298" y="517.306447" style="fill: #1f77b4; stroke: #1f77b4"/>
     <use xlink:href="#m54d49420a9" x="617.061504" y="517.509283" style="fill: #1f77b4; stroke: #1f77b4"/>
     <use xlink:href="#m54d49420a9" x="621.13471" y="517.509283" style="fill: #1f77b4; stroke: #1f77b4"/>
     <use xlink:href="#m54d49420a9" x="625.207916" y="517.509283" style="fill: #1f77b4; stroke: #1f77b4"/>
     <use xlink:href="#m54d49420a9" x="629.281121" y="517.509283" style="fill: #1f77b4; stroke: #1f77b4"/>
     <use xlink:href="#m54d49420a9" x="633.354327" y="517.509283" style="fill: #1f77b4; stroke: #1f77b4"/>
     <use xlink:href="#m54d49420a9" x="637.427533" y="517.509283" style="fill: #1f77b4; stroke: #1f77b4"/>
     <use xlink:href="#m54d49420a9" x="641.500739" y="517.71212" style="fill: #1f77b4; stroke: #1f77b4"/>
     <use xlink:href="#m54d49420a9" x="645.573944" y="517.71212" style="fill: #1f77b4; stroke: #1f77b4"/>
     <use xlink:href="#m54d49420a9" x="649.64715" y="517.71212" style="fill: #1f77b4; stroke: #1f77b4"/>
     <use xlink:href="#m54d49420a9" x="653.720356" y="517.71212" style="fill: #1f77b4; stroke: #1f77b4"/>
     <use xlink:href="#m54d49420a9" x="657.793562" y="517.71212" style="fill: #1f77b4; stroke: #1f77b4"/>
     <use xlink:href="#m54d49420a9" x="661.866767" y="517.71212" style="fill: #1f77b4; stroke: #1f77b4"/>
     <use xlink:href="#m54d49420a9" x="665.939973" y="517.914956" style="fill: #1f77b4; stroke: #1f77b4"/>
     <use xlink:href="#m54d49420a9" x="670.013179" y="517.914956" style="fill: #1f77b4; stroke: #1f77b4"/>
     <use xlink:href="#m54d49420a9" x="674.086385" y="517.914956" style="fill: #1f77b4; stroke: #1f77b4"/>
     <use xlink:href="#m54d49420a9" x="678.15959" y="517.914956" style="fill: #1f77b4; stroke: #1f77b4"/>
     <use xlink:href="#m54d49420a9" x="682.232796" y="517.914956" style="fill: #1f77b4; stroke: #1f77b4"/>
     <use xlink:href="#m54d49420a9" x="686.306002" y="517.914956" style="fill: #1f77b4; stroke: #1f77b4"/>
     <use xlink:href="#m54d49420a9" x="690.379208" y="517.914956" style="fill: #1f77b4; stroke: #1f77b4"/>
     <use xlink:href="#m54d49420a9" x="694.452413" y="517.914956" style="fill: #1f77b4; stroke: #1f77b4"/>
     <use xlink:href="#m54d49420a9" x="698.525619" y="517.914956" style="fill: #1f77b4; stroke: #1f77b4"/>
     <use xlink:href="#m54d49420a9" x="702.598825" y="517.914956" style="fill: #1f77b4; stroke: #1f77b4"/>
     <use xlink:href="#m54d49420a9" x="706.672031" y="518.117792" style="fill: #1f77b4; stroke: #1f77b4"/>
     <use xlink:href="#m54d49420a9" x="710.745236" y="518.117792" style="fill: #1f77b4; stroke: #1f77b4"/>
     <use xlink:href="#m54d49420a9" x="714.818442" y="518.117792" style="fill: #1f77b4; stroke: #1f77b4"/>
     <use xlink:href="#m54d49420a9" x="718.891648" y="518.117792" style="fill: #1f77b4; stroke: #1f77b4"/>
     <use xlink:href="#m54d49420a9" x="722.964853" y="518.117792" style="fill: #1f77b4; stroke: #1f77b4"/>
     <use xlink:href="#m54d49420a9" x="727.038059" y="518.117792" style="fill: #1f77b4; stroke: #1f77b4"/>
     <use xlink:href="#m54d49420a9" x="731.111265" y="518.117792" style="fill: #1f77b4; stroke: #1f77b4"/>
     <use xlink:href="#m54d49420a9" x="735.184471" y="518.117792" style="fill: #1f77b4; stroke: #1f77b4"/>
     <use xlink:href="#m54d49420a9" x="739.257676" y="518.117792" style="fill: #1f77b4; stroke: #1f77b4"/>
     <use xlink:href="#m54d49420a9" x="743.330882" y="518.117792" style="fill: #1f77b4; stroke: #1f77b4"/>
     <use xlink:href="#m54d49420a9" x="747.404088" y="518.117792" style="fill: #1f77b4; stroke: #1f77b4"/>
     <use xlink:href="#m54d49420a9" x="751.477294" y="518.117792" style="fill: #1f77b4; stroke: #1f77b4"/>
     <use xlink:href="#m54d49420a9" x="755.550499" y="518.117792" style="fill: #1f77b4; stroke: #1f77b4"/>
     <use xlink:href="#m54d49420a9" x="759.623705" y="518.320628" style="fill: #1f77b4; stroke: #1f77b4"/>
     <use xlink:href="#m54d49420a9" x="763.696911" y="518.320628" style="fill: #1f77b4; stroke: #1f77b4"/>
     <use xlink:href="#m54d49420a9" x="767.770117" y="518.320628" style="fill: #1f77b4; stroke: #1f77b4"/>
     <use xlink:href="#m54d49420a9" x="771.843322" y="518.320628" style="fill: #1f77b4; stroke: #1f77b4"/>
     <use xlink:href="#m54d49420a9" x="775.916528" y="518.320628" style="fill: #1f77b4; stroke: #1f77b4"/>
     <use xlink:href="#m54d49420a9" x="779.989734" y="518.320628" style="fill: #1f77b4; stroke: #1f77b4"/>
     <use xlink:href="#m54d49420a9" x="784.06294" y="518.320628" style="fill: #1f77b4; stroke: #1f77b4"/>
     <use xlink:href="#m54d49420a9" x="788.136145" y="518.523465" style="fill: #1f77b4; stroke: #1f77b4"/>
     <use xlink:href="#m54d49420a9" x="792.209351" y="518.523465" style="fill: #1f77b4; stroke: #1f77b4"/>
     <use xlink:href="#m54d49420a9" x="796.282557" y="518.523465" style="fill: #1f77b4; stroke: #1f77b4"/>
     <use xlink:href="#m54d49420a9" x="800.355763" y="518.523465" style="fill: #1f77b4; stroke: #1f77b4"/>
     <use xlink:href="#m54d49420a9" x="804.428968" y="518.523465" style="fill: #1f77b4; stroke: #1f77b4"/>
     <use xlink:href="#m54d49420a9" x="808.502174" y="518.523465" style="fill: #1f77b4; stroke: #1f77b4"/>
     <use xlink:href="#m54d49420a9" x="812.57538" y="518.523465" style="fill: #1f77b4; stroke: #1f77b4"/>
     <use xlink:href="#m54d49420a9" x="816.648586" y="518.523465" style="fill: #1f77b4; stroke: #1f77b4"/>
     <use xlink:href="#m54d49420a9" x="820.721791" y="518.523465" style="fill: #1f77b4; stroke: #1f77b4"/>
     <use xlink:href="#m54d49420a9" x="824.794997" y="518.726301" style="fill: #1f77b4; stroke: #1f77b4"/>
     <use xlink:href="#m54d49420a9" x="828.868203" y="518.726301" style="fill: #1f77b4; stroke: #1f77b4"/>
     <use xlink:href="#m54d49420a9" x="832.941408" y="518.726301" style="fill: #1f77b4; stroke: #1f77b4"/>
     <use xlink:href="#m54d49420a9" x="837.014614" y="518.726301" style="fill: #1f77b4; stroke: #1f77b4"/>
     <use xlink:href="#m54d49420a9" x="841.08782" y="518.726301" style="fill: #1f77b4; stroke: #1f77b4"/>
     <use xlink:href="#m54d49420a9" x="845.161026" y="518.726301" style="fill: #1f77b4; stroke: #1f77b4"/>
     <use xlink:href="#m54d49420a9" x="849.234231" y="518.726301" style="fill: #1f77b4; stroke: #1f77b4"/>
     <use xlink:href="#m54d49420a9" x="853.307437" y="518.929137" style="fill: #1f77b4; stroke: #1f77b4"/>
     <use xlink:href="#m54d49420a9" x="857.380643" y="518.929137" style="fill: #1f77b4; stroke: #1f77b4"/>
     <use xlink:href="#m54d49420a9" x="861.453849" y="518.929137" style="fill: #1f77b4; stroke: #1f77b4"/>
     <use xlink:href="#m54d49420a9" x="865.527054" y="518.929137" style="fill: #1f77b4; stroke: #1f77b4"/>
     <use xlink:href="#m54d49420a9" x="869.60026" y="519.131974" style="fill: #1f77b4; stroke: #1f77b4"/>
     <use xlink:href="#m54d49420a9" x="873.673466" y="519.131974" style="fill: #1f77b4; stroke: #1f77b4"/>
     <use xlink:href="#m54d49420a9" x="877.746672" y="519.131974" style="fill: #1f77b4; stroke: #1f77b4"/>
     <use xlink:href="#m54d49420a9" x="881.819877" y="519.33481" style="fill: #1f77b4; stroke: #1f77b4"/>
     <use xlink:href="#m54d49420a9" x="885.893083" y="519.33481" style="fill: #1f77b4; stroke: #1f77b4"/>
     <use xlink:href="#m54d49420a9" x="889.966289" y="519.537646" style="fill: #1f77b4; stroke: #1f77b4"/>
     <use xlink:href="#m54d49420a9" x="894.039495" y="519.943319" style="fill: #1f77b4; stroke: #1f77b4"/>
     <use xlink:href="#m54d49420a9" x="898.1127" y="519.943319" style="fill: #1f77b4; stroke: #1f77b4"/>
     <use xlink:href="#m54d49420a9" x="902.185906" y="519.943319" style="fill: #1f77b4; stroke: #1f77b4"/>
     <use xlink:href="#m54d49420a9" x="906.259112" y="520.146155" style="fill: #1f77b4; stroke: #1f77b4"/>
     <use xlink:href="#m54d49420a9" x="910.332318" y="520.146155" style="fill: #1f77b4; stroke: #1f77b4"/>
     <use xlink:href="#m54d49420a9" x="914.405523" y="520.146155" style="fill: #1f77b4; stroke: #1f77b4"/>
     <use xlink:href="#m54d49420a9" x="918.478729" y="520.348991" style="fill: #1f77b4; stroke: #1f77b4"/>
     <use xlink:href="#m54d49420a9" x="922.551935" y="520.348991" style="fill: #1f77b4; stroke: #1f77b4"/>
     <use xlink:href="#m54d49420a9" x="926.625141" y="520.348991" style="fill: #1f77b4; stroke: #1f77b4"/>
     <use xlink:href="#m54d49420a9" x="930.698346" y="520.551827" style="fill: #1f77b4; stroke: #1f77b4"/>
     <use xlink:href="#m54d49420a9" x="934.771552" y="520.754664" style="fill: #1f77b4; stroke: #1f77b4"/>
     <use xlink:href="#m54d49420a9" x="938.844758" y="520.9575" style="fill: #1f77b4; stroke: #1f77b4"/>
     <use xlink:href="#m54d49420a9" x="942.917964" y="520.9575" style="fill: #1f77b4; stroke: #1f77b4"/>
     <use xlink:href="#m54d49420a9" x="946.991169" y="520.9575" style="fill: #1f77b4; stroke: #1f77b4"/>
     <use xlink:href="#m54d49420a9" x="951.064375" y="520.9575" style="fill: #1f77b4; stroke: #1f77b4"/>
    </g>
   </g>
   <g id="patch_3">
    <path d="M 57.199375 544.5575 
L 57.199375 25.3575 
" style="fill: none; stroke: #000000; stroke-width: 0.8; stroke-linejoin: miter; stroke-linecap: square"/>
   </g>
   <g id="patch_4">
    <path d="M 993.629375 544.5575 
L 993.629375 25.3575 
" style="fill: none; stroke: #000000; stroke-width: 0.8; stroke-linejoin: miter; stroke-linecap: square"/>
   </g>
   <g id="patch_5">
    <path d="M 57.199375 544.5575 
L 993.629375 544.5575 
" style="fill: none; stroke: #000000; stroke-width: 0.8; stroke-linejoin: miter; stroke-linecap: square"/>
   </g>
   <g id="patch_6">
    <path d="M 57.199375 25.3575 
L 993.629375 25.3575 
" style="fill: none; stroke: #000000; stroke-width: 0.8; stroke-linejoin: miter; stroke-linecap: square"/>
   </g>
   <g id="text_8">
    <!-- Number of Images per Species -->
    <g transform="translate(387.165625 19.3575) scale(0.16 -0.16)">
     <defs>
      <path id="DejaVuSans-Bold-4e" d="M 588 4666 
L 1931 4666 
L 3628 1466 
L 3628 4666 
L 4769 4666 
L 4769 0 
L 3425 0 
L 1728 3200 
L 1728 0 
L 588 0 
L 588 4666 
z
" transform="scale(0.015625)"/>
      <path id="DejaVuSans-Bold-75" d="M 500 1363 
L 500 3500 
L 1625 3500 
L 1625 3150 
Q 1625 2866 1622 2436 
Q 1619 2006 1619 1863 
Q 1619 1441 1641 1255 
Q 1663 1069 1716 984 
Q 1784 875 1895 815 
Q 2006 756 2150 756 
Q 2500 756 2700 1025 
Q 2900 1294 2900 1772 
L 2900 3500 
L 4019 3500 
L 4019 0 
L 2900 0 
L 2900 506 
Q 2647 200 2364 54 
Q 2081 -91 1741 -91 
Q 1134 -91 817 281 
Q 500 653 500 1363 
z
" transform="scale(0.015625)"/>
      <path id="DejaVuSans-Bold-6d" d="M 3781 2919 
Q 3994 3244 4286 3414 
Q 4578 3584 4928 3584 
Q 5531 3584 5847 3212 
Q 6163 2841 6163 2131 
L 6163 0 
L 5038 0 
L 5038 1825 
Q 5041 1866 5042 1909 
Q 5044 1953 5044 2034 
Q 5044 2406 4934 2573 
Q 4825 2741 4581 2741 
Q 4263 2741 4089 2478 
Q 3916 2216 3909 1719 
L 3909 0 
L 2784 0 
L 2784 1825 
Q 2784 2406 2684 2573 
Q 2584 2741 2328 2741 
Q 2006 2741 1831 2477 
Q 1656 2213 1656 1722 
L 1656 0 
L 531 0 
L 531 3500 
L 1656 3500 
L 1656 2988 
Q 1863 3284 2130 3434 
Q 2397 3584 2719 3584 
Q 3081 3584 3359 3409 
Q 3638 3234 3781 2919 
z
" transform="scale(0.015625)"/>
      <path id="DejaVuSans-Bold-62" d="M 2400 722 
Q 2759 722 2948 984 
Q 3138 1247 3138 1747 
Q 3138 2247 2948 2509 
Q 2759 2772 2400 2772 
Q 2041 2772 1848 2508 
Q 1656 2244 1656 1747 
Q 1656 1250 1848 986 
Q 2041 722 2400 722 
z
M 1656 2988 
Q 1888 3294 2169 3439 
Q 2450 3584 2816 3584 
Q 3463 3584 3878 3070 
Q 4294 2556 4294 1747 
Q 4294 938 3878 423 
Q 3463 -91 2816 -91 
Q 2450 -91 2169 54 
Q 1888 200 1656 506 
L 1656 0 
L 538 0 
L 538 4863 
L 1656 4863 
L 1656 2988 
z
" transform="scale(0.015625)"/>
      <path id="DejaVuSans-Bold-65" d="M 4031 1759 
L 4031 1441 
L 1416 1441 
Q 1456 1047 1700 850 
Q 1944 653 2381 653 
Q 2734 653 3104 758 
Q 3475 863 3866 1075 
L 3866 213 
Q 3469 63 3072 -14 
Q 2675 -91 2278 -91 
Q 1328 -91 801 392 
Q 275 875 275 1747 
Q 275 2603 792 3093 
Q 1309 3584 2216 3584 
Q 3041 3584 3536 3087 
Q 4031 2591 4031 1759 
z
M 2881 2131 
Q 2881 2450 2695 2645 
Q 2509 2841 2209 2841 
Q 1884 2841 1681 2658 
Q 1478 2475 1428 2131 
L 2881 2131 
z
" transform="scale(0.015625)"/>
      <path id="DejaVuSans-Bold-72" d="M 3138 2547 
Q 2991 2616 2845 2648 
Q 2700 2681 2553 2681 
Q 2122 2681 1889 2404 
Q 1656 2128 1656 1613 
L 1656 0 
L 538 0 
L 538 3500 
L 1656 3500 
L 1656 2925 
Q 1872 3269 2151 3426 
Q 2431 3584 2822 3584 
Q 2878 3584 2943 3579 
Q 3009 3575 3134 3559 
L 3138 2547 
z
" transform="scale(0.015625)"/>
      <path id="DejaVuSans-Bold-20" transform="scale(0.015625)"/>
      <path id="DejaVuSans-Bold-6f" d="M 2203 2784 
Q 1831 2784 1636 2517 
Q 1441 2250 1441 1747 
Q 1441 1244 1636 976 
Q 1831 709 2203 709 
Q 2569 709 2762 976 
Q 2956 1244 2956 1747 
Q 2956 2250 2762 2517 
Q 2569 2784 2203 2784 
z
M 2203 3584 
Q 3106 3584 3614 3096 
Q 4122 2609 4122 1747 
Q 4122 884 3614 396 
Q 3106 -91 2203 -91 
Q 1297 -91 786 396 
Q 275 884 275 1747 
Q 275 2609 786 3096 
Q 1297 3584 2203 3584 
z
" transform="scale(0.015625)"/>
      <path id="DejaVuSans-Bold-66" d="M 2841 4863 
L 2841 4128 
L 2222 4128 
Q 1984 4128 1890 4042 
Q 1797 3956 1797 3744 
L 1797 3500 
L 2753 3500 
L 2753 2700 
L 1797 2700 
L 1797 0 
L 678 0 
L 678 2700 
L 122 2700 
L 122 3500 
L 678 3500 
L 678 3744 
Q 678 4316 997 4589 
Q 1316 4863 1984 4863 
L 2841 4863 
z
" transform="scale(0.015625)"/>
      <path id="DejaVuSans-Bold-49" d="M 588 4666 
L 1791 4666 
L 1791 0 
L 588 0 
L 588 4666 
z
" transform="scale(0.015625)"/>
      <path id="DejaVuSans-Bold-61" d="M 2106 1575 
Q 1756 1575 1579 1456 
Q 1403 1338 1403 1106 
Q 1403 894 1545 773 
Q 1688 653 1941 653 
Q 2256 653 2472 879 
Q 2688 1106 2688 1447 
L 2688 1575 
L 2106 1575 
z
M 3816 1997 
L 3816 0 
L 2688 0 
L 2688 519 
Q 2463 200 2181 54 
Q 1900 -91 1497 -91 
Q 953 -91 614 226 
Q 275 544 275 1050 
Q 275 1666 698 1953 
Q 1122 2241 2028 2241 
L 2688 2241 
L 2688 2328 
Q 2688 2594 2478 2717 
Q 2269 2841 1825 2841 
Q 1466 2841 1156 2769 
Q 847 2697 581 2553 
L 581 3406 
Q 941 3494 1303 3539 
Q 1666 3584 2028 3584 
Q 2975 3584 3395 3211 
Q 3816 2838 3816 1997 
z
" transform="scale(0.015625)"/>
      <path id="DejaVuSans-Bold-67" d="M 2919 594 
Q 2688 288 2409 144 
Q 2131 0 1766 0 
Q 1125 0 706 504 
Q 288 1009 288 1791 
Q 288 2575 706 3076 
Q 1125 3578 1766 3578 
Q 2131 3578 2409 3434 
Q 2688 3291 2919 2981 
L 2919 3500 
L 4044 3500 
L 4044 353 
Q 4044 -491 3511 -936 
Q 2978 -1381 1966 -1381 
Q 1638 -1381 1331 -1331 
Q 1025 -1281 716 -1178 
L 716 -306 
Q 1009 -475 1290 -558 
Q 1572 -641 1856 -641 
Q 2406 -641 2662 -400 
Q 2919 -159 2919 353 
L 2919 594 
z
M 2181 2772 
Q 1834 2772 1640 2515 
Q 1447 2259 1447 1791 
Q 1447 1309 1634 1061 
Q 1822 813 2181 813 
Q 2531 813 2725 1069 
Q 2919 1325 2919 1791 
Q 2919 2259 2725 2515 
Q 2531 2772 2181 2772 
z
" transform="scale(0.015625)"/>
      <path id="DejaVuSans-Bold-73" d="M 3272 3391 
L 3272 2541 
Q 2913 2691 2578 2766 
Q 2244 2841 1947 2841 
Q 1628 2841 1473 2761 
Q 1319 2681 1319 2516 
Q 1319 2381 1436 2309 
Q 1553 2238 1856 2203 
L 2053 2175 
Q 2913 2066 3209 1816 
Q 3506 1566 3506 1031 
Q 3506 472 3093 190 
Q 2681 -91 1863 -91 
Q 1516 -91 1145 -36 
Q 775 19 384 128 
L 384 978 
Q 719 816 1070 734 
Q 1422 653 1784 653 
Q 2113 653 2278 743 
Q 2444 834 2444 1013 
Q 2444 1163 2330 1236 
Q 2216 1309 1875 1350 
L 1678 1375 
Q 931 1469 631 1722 
Q 331 1975 331 2491 
Q 331 3047 712 3315 
Q 1094 3584 1881 3584 
Q 2191 3584 2531 3537 
Q 2872 3491 3272 3391 
z
" transform="scale(0.015625)"/>
      <path id="DejaVuSans-Bold-70" d="M 1656 506 
L 1656 -1331 
L 538 -1331 
L 538 3500 
L 1656 3500 
L 1656 2988 
Q 1888 3294 2169 3439 
Q 2450 3584 2816 3584 
Q 3463 3584 3878 3070 
Q 4294 2556 4294 1747 
Q 4294 938 3878 423 
Q 3463 -91 2816 -91 
Q 2450 -91 2169 54 
Q 1888 200 1656 506 
z
M 2400 2772 
Q 2041 2772 1848 2508 
Q 1656 2244 1656 1747 
Q 1656 1250 1848 986 
Q 2041 722 2400 722 
Q 2759 722 2948 984 
Q 3138 1247 3138 1747 
Q 3138 2247 2948 2509 
Q 2759 2772 2400 2772 
z
" transform="scale(0.015625)"/>
      <path id="DejaVuSans-Bold-53" d="M 3834 4519 
L 3834 3531 
Q 3450 3703 3084 3790 
Q 2719 3878 2394 3878 
Q 1963 3878 1756 3759 
Q 1550 3641 1550 3391 
Q 1550 3203 1689 3098 
Q 1828 2994 2194 2919 
L 2706 2816 
Q 3484 2659 3812 2340 
Q 4141 2022 4141 1434 
Q 4141 663 3683 286 
Q 3225 -91 2284 -91 
Q 1841 -91 1394 -6 
Q 947 78 500 244 
L 500 1259 
Q 947 1022 1364 901 
Q 1781 781 2169 781 
Q 2563 781 2772 912 
Q 2981 1044 2981 1288 
Q 2981 1506 2839 1625 
Q 2697 1744 2272 1838 
L 1806 1941 
Q 1106 2091 782 2419 
Q 459 2747 459 3303 
Q 459 4000 909 4375 
Q 1359 4750 2203 4750 
Q 2588 4750 2994 4692 
Q 3400 4634 3834 4519 
z
" transform="scale(0.015625)"/>
      <path id="DejaVuSans-Bold-63" d="M 3366 3391 
L 3366 2478 
Q 3138 2634 2908 2709 
Q 2678 2784 2431 2784 
Q 1963 2784 1702 2511 
Q 1441 2238 1441 1747 
Q 1441 1256 1702 982 
Q 1963 709 2431 709 
Q 2694 709 2930 787 
Q 3166 866 3366 1019 
L 3366 103 
Q 3103 6 2833 -42 
Q 2563 -91 2291 -91 
Q 1344 -91 809 395 
Q 275 881 275 1747 
Q 275 2613 809 3098 
Q 1344 3584 2291 3584 
Q 2566 3584 2833 3536 
Q 3100 3488 3366 3391 
z
" transform="scale(0.015625)"/>
      <path id="DejaVuSans-Bold-69" d="M 538 3500 
L 1656 3500 
L 1656 0 
L 538 0 
L 538 3500 
z
M 538 4863 
L 1656 4863 
L 1656 3950 
L 538 3950 
L 538 4863 
z
" transform="scale(0.015625)"/>
     </defs>
     <use xlink:href="#DejaVuSans-Bold-4e"/>
     <use xlink:href="#DejaVuSans-Bold-75" x="83.691406"/>
     <use xlink:href="#DejaVuSans-Bold-6d" x="154.882812"/>
     <use xlink:href="#DejaVuSans-Bold-62" x="259.082031"/>
     <use xlink:href="#DejaVuSans-Bold-65" x="330.664062"/>
     <use xlink:href="#DejaVuSans-Bold-72" x="398.486328"/>
     <use xlink:href="#DejaVuSans-Bold-20" x="447.802734"/>
     <use xlink:href="#DejaVuSans-Bold-6f" x="482.617188"/>
     <use xlink:href="#DejaVuSans-Bold-66" x="551.318359"/>
     <use xlink:href="#DejaVuSans-Bold-20" x="594.824219"/>
     <use xlink:href="#DejaVuSans-Bold-49" x="629.638672"/>
     <use xlink:href="#DejaVuSans-Bold-6d" x="666.845703"/>
     <use xlink:href="#DejaVuSans-Bold-61" x="771.044922"/>
     <use xlink:href="#DejaVuSans-Bold-67" x="838.525391"/>
     <use xlink:href="#DejaVuSans-Bold-65" x="910.107422"/>
     <use xlink:href="#DejaVuSans-Bold-73" x="977.929688"/>
     <use xlink:href="#DejaVuSans-Bold-20" x="1037.451172"/>
     <use xlink:href="#DejaVuSans-Bold-70" x="1072.265625"/>
     <use xlink:href="#DejaVuSans-Bold-65" x="1143.847656"/>
     <use xlink:href="#DejaVuSans-Bold-72" x="1211.669922"/>
     <use xlink:href="#DejaVuSans-Bold-20" x="1260.986328"/>
     <use xlink:href="#DejaVuSans-Bold-53" x="1295.800781"/>
     <use xlink:href="#DejaVuSans-Bold-70" x="1367.822266"/>
     <use xlink:href="#DejaVuSans-Bold-65" x="1439.404297"/>
     <use xlink:href="#DejaVuSans-Bold-63" x="1507.226562"/>
     <use xlink:href="#DejaVuSans-Bold-69" x="1566.503906"/>
     <use xlink:href="#DejaVuSans-Bold-65" x="1600.78125"/>
     <use xlink:href="#DejaVuSans-Bold-73" x="1668.603516"/>
    </g>
   </g>
   <g id="legend_1">
    <g id="patch_7">
     <path d="M 796.005937 199.53375 
L 986.629375 199.53375 
Q 988.629375 199.53375 988.629375 197.53375 
L 988.629375 32.3575 
Q 988.629375 30.3575 986.629375 30.3575 
L 796.005937 30.3575 
Q 794.005937 30.3575 794.005937 32.3575 
L 794.005937 197.53375 
Q 794.005937 199.53375 796.005937 199.53375 
z
" style="fill: #ffffff; opacity: 0.8; stroke: #cccccc; stroke-linejoin: miter"/>
    </g>
    <g id="text_9">
     <!-- Top 10 Species -->
     <g transform="translate(846.650469 43.475625) scale(0.12 -0.12)">
      <defs>
       <path id="DejaVuSans-54" d="M -19 4666 
L 3928 4666 
L 3928 4134 
L 2272 4134 
L 2272 0 
L 1638 0 
L 1638 4134 
L -19 4134 
L -19 4666 
z
" transform="scale(0.015625)"/>
      </defs>
      <use xlink:href="#DejaVuSans-54"/>
      <use xlink:href="#DejaVuSans-6f" x="44.083984"/>
      <use xlink:href="#DejaVuSans-70" x="105.265625"/>
      <use xlink:href="#DejaVuSans-20" x="168.742188"/>
      <use xlink:href="#DejaVuSans-31" x="200.529297"/>
      <use xlink:href="#DejaVuSans-30" x="264.152344"/>
      <use xlink:href="#DejaVuSans-20" x="327.775391"/>
      <use xlink:href="#DejaVuSans-53" x="359.5625"/>
      <use xlink:href="#DejaVuSans-70" x="423.039062"/>
      <use xlink:href="#DejaVuSans-65" x="486.515625"/>
      <use xlink:href="#DejaVuSans-63" x="548.039062"/>
      <use xlink:href="#DejaVuSans-69" x="603.019531"/>
      <use xlink:href="#DejaVuSans-65" x="630.802734"/>
      <use xlink:href="#DejaVuSans-73" x="692.326172"/>
     </g>
    </g>
    <g id="patch_8">
     <path d="M 798.005937 58.569687 
L 818.005937 58.569687 
L 818.005937 51.569687 
L 798.005937 51.569687 
z
" style="fill: #1f77b4; opacity: 0.7"/>
    </g>
    <g id="text_10">
     <!-- Ips_typographus: 2328 -->
     <g transform="translate(826.005937 58.569687) scale(0.1 -0.1)">
      <defs>
       <path id="DejaVuSans-5f" d="M 3263 -1063 
L 3263 -1509 
L -63 -1509 
L -63 -1063 
L 3263 -1063 
z
" transform="scale(0.015625)"/>
       <path id="DejaVuSans-74" d="M 1172 4494 
L 1172 3500 
L 2356 3500 
L 2356 3053 
L 1172 3053 
L 1172 1153 
Q 1172 725 1289 603 
Q 1406 481 1766 481 
L 2356 481 
L 2356 0 
L 1766 0 
Q 1100 0 847 248 
Q 594 497 594 1153 
L 594 3053 
L 172 3053 
L 172 3500 
L 594 3500 
L 594 4494 
L 1172 4494 
z
" transform="scale(0.015625)"/>
       <path id="DejaVuSans-79" d="M 2059 -325 
Q 1816 -950 1584 -1140 
Q 1353 -1331 966 -1331 
L 506 -1331 
L 506 -850 
L 844 -850 
Q 1081 -850 1212 -737 
Q 1344 -625 1503 -206 
L 1606 56 
L 191 3500 
L 800 3500 
L 1894 763 
L 2988 3500 
L 3597 3500 
L 2059 -325 
z
" transform="scale(0.015625)"/>
       <path id="DejaVuSans-68" d="M 3513 2113 
L 3513 0 
L 2938 0 
L 2938 2094 
Q 2938 2591 2744 2837 
Q 2550 3084 2163 3084 
Q 1697 3084 1428 2787 
Q 1159 2491 1159 1978 
L 1159 0 
L 581 0 
L 581 4863 
L 1159 4863 
L 1159 2956 
Q 1366 3272 1645 3428 
Q 1925 3584 2291 3584 
Q 2894 3584 3203 3211 
Q 3513 2838 3513 2113 
z
" transform="scale(0.015625)"/>
       <path id="DejaVuSans-3a" d="M 750 794 
L 1409 794 
L 1409 0 
L 750 0 
L 750 794 
z
M 750 3309 
L 1409 3309 
L 1409 2516 
L 750 2516 
L 750 3309 
z
" transform="scale(0.015625)"/>
       <path id="DejaVuSans-33" d="M 2597 2516 
Q 3050 2419 3304 2112 
Q 3559 1806 3559 1356 
Q 3559 666 3084 287 
Q 2609 -91 1734 -91 
Q 1441 -91 1130 -33 
Q 819 25 488 141 
L 488 750 
Q 750 597 1062 519 
Q 1375 441 1716 441 
Q 2309 441 2620 675 
Q 2931 909 2931 1356 
Q 2931 1769 2642 2001 
Q 2353 2234 1838 2234 
L 1294 2234 
L 1294 2753 
L 1863 2753 
Q 2328 2753 2575 2939 
Q 2822 3125 2822 3475 
Q 2822 3834 2567 4026 
Q 2313 4219 1838 4219 
Q 1578 4219 1281 4162 
Q 984 4106 628 3988 
L 628 4550 
Q 988 4650 1302 4700 
Q 1616 4750 1894 4750 
Q 2613 4750 3031 4423 
Q 3450 4097 3450 3541 
Q 3450 3153 3228 2886 
Q 3006 2619 2597 2516 
z
" transform="scale(0.015625)"/>
       <path id="DejaVuSans-38" d="M 2034 2216 
Q 1584 2216 1326 1975 
Q 1069 1734 1069 1313 
Q 1069 891 1326 650 
Q 1584 409 2034 409 
Q 2484 409 2743 651 
Q 3003 894 3003 1313 
Q 3003 1734 2745 1975 
Q 2488 2216 2034 2216 
z
M 1403 2484 
Q 997 2584 770 2862 
Q 544 3141 544 3541 
Q 544 4100 942 4425 
Q 1341 4750 2034 4750 
Q 2731 4750 3128 4425 
Q 3525 4100 3525 3541 
Q 3525 3141 3298 2862 
Q 3072 2584 2669 2484 
Q 3125 2378 3379 2068 
Q 3634 1759 3634 1313 
Q 3634 634 3220 271 
Q 2806 -91 2034 -91 
Q 1263 -91 848 271 
Q 434 634 434 1313 
Q 434 1759 690 2068 
Q 947 2378 1403 2484 
z
M 1172 3481 
Q 1172 3119 1398 2916 
Q 1625 2713 2034 2713 
Q 2441 2713 2670 2916 
Q 2900 3119 2900 3481 
Q 2900 3844 2670 4047 
Q 2441 4250 2034 4250 
Q 1625 4250 1398 4047 
Q 1172 3844 1172 3481 
z
" transform="scale(0.015625)"/>
      </defs>
      <use xlink:href="#DejaVuSans-49"/>
      <use xlink:href="#DejaVuSans-70" x="29.492188"/>
      <use xlink:href="#DejaVuSans-73" x="92.96875"/>
      <use xlink:href="#DejaVuSans-5f" x="145.068359"/>
      <use xlink:href="#DejaVuSans-74" x="195.068359"/>
      <use xlink:href="#DejaVuSans-79" x="234.277344"/>
      <use xlink:href="#DejaVuSans-70" x="293.457031"/>
      <use xlink:href="#DejaVuSans-6f" x="356.933594"/>
      <use xlink:href="#DejaVuSans-67" x="418.115234"/>
      <use xlink:href="#DejaVuSans-72" x="481.591797"/>
      <use xlink:href="#DejaVuSans-61" x="522.705078"/>
      <use xlink:href="#DejaVuSans-70" x="583.984375"/>
      <use xlink:href="#DejaVuSans-68" x="647.460938"/>
      <use xlink:href="#DejaVuSans-75" x="710.839844"/>
      <use xlink:href="#DejaVuSans-73" x="774.21875"/>
      <use xlink:href="#DejaVuSans-3a" x="826.318359"/>
      <use xlink:href="#DejaVuSans-20" x="860.009766"/>
      <use xlink:href="#DejaVuSans-32" x="891.796875"/>
      <use xlink:href="#DejaVuSans-33" x="955.419922"/>
      <use xlink:href="#DejaVuSans-32" x="1019.042969"/>
      <use xlink:href="#DejaVuSans-38" x="1082.666016"/>
     </g>
    </g>
    <g id="patch_9">
     <path d="M 798.005937 73.525937 
L 818.005937 73.525937 
L 818.005937 66.525937 
L 798.005937 66.525937 
z
" style="fill: #1f77b4; opacity: 0.7"/>
    </g>
    <g id="text_11">
     <!-- Dendroctonus_valens: 1956 -->
     <g transform="translate(826.005937 73.525937) scale(0.1 -0.1)">
      <defs>
       <path id="DejaVuSans-44" d="M 1259 4147 
L 1259 519 
L 2022 519 
Q 2988 519 3436 956 
Q 3884 1394 3884 2338 
Q 3884 3275 3436 3711 
Q 2988 4147 2022 4147 
L 1259 4147 
z
M 628 4666 
L 1925 4666 
Q 3281 4666 3915 4102 
Q 4550 3538 4550 2338 
Q 4550 1131 3912 565 
Q 3275 0 1925 0 
L 628 0 
L 628 4666 
z
" transform="scale(0.015625)"/>
       <path id="DejaVuSans-76" d="M 191 3500 
L 800 3500 
L 1894 563 
L 2988 3500 
L 3597 3500 
L 2284 0 
L 1503 0 
L 191 3500 
z
" transform="scale(0.015625)"/>
       <path id="DejaVuSans-6c" d="M 603 4863 
L 1178 4863 
L 1178 0 
L 603 0 
L 603 4863 
z
" transform="scale(0.015625)"/>
       <path id="DejaVuSans-39" d="M 703 97 
L 703 672 
Q 941 559 1184 500 
Q 1428 441 1663 441 
Q 2288 441 2617 861 
Q 2947 1281 2994 2138 
Q 2813 1869 2534 1725 
Q 2256 1581 1919 1581 
Q 1219 1581 811 2004 
Q 403 2428 403 3163 
Q 403 3881 828 4315 
Q 1253 4750 1959 4750 
Q 2769 4750 3195 4129 
Q 3622 3509 3622 2328 
Q 3622 1225 3098 567 
Q 2575 -91 1691 -91 
Q 1453 -91 1209 -44 
Q 966 3 703 97 
z
M 1959 2075 
Q 2384 2075 2632 2365 
Q 2881 2656 2881 3163 
Q 2881 3666 2632 3958 
Q 2384 4250 1959 4250 
Q 1534 4250 1286 3958 
Q 1038 3666 1038 3163 
Q 1038 2656 1286 2365 
Q 1534 2075 1959 2075 
z
" transform="scale(0.015625)"/>
       <path id="DejaVuSans-36" d="M 2113 2584 
Q 1688 2584 1439 2293 
Q 1191 2003 1191 1497 
Q 1191 994 1439 701 
Q 1688 409 2113 409 
Q 2538 409 2786 701 
Q 3034 994 3034 1497 
Q 3034 2003 2786 2293 
Q 2538 2584 2113 2584 
z
M 3366 4563 
L 3366 3988 
Q 3128 4100 2886 4159 
Q 2644 4219 2406 4219 
Q 1781 4219 1451 3797 
Q 1122 3375 1075 2522 
Q 1259 2794 1537 2939 
Q 1816 3084 2150 3084 
Q 2853 3084 3261 2657 
Q 3669 2231 3669 1497 
Q 3669 778 3244 343 
Q 2819 -91 2113 -91 
Q 1303 -91 875 529 
Q 447 1150 447 2328 
Q 447 3434 972 4092 
Q 1497 4750 2381 4750 
Q 2619 4750 2861 4703 
Q 3103 4656 3366 4563 
z
" transform="scale(0.015625)"/>
      </defs>
      <use xlink:href="#DejaVuSans-44"/>
      <use xlink:href="#DejaVuSans-65" x="77.001953"/>
      <use xlink:href="#DejaVuSans-6e" x="138.525391"/>
      <use xlink:href="#DejaVuSans-64" x="201.904297"/>
      <use xlink:href="#DejaVuSans-72" x="265.380859"/>
      <use xlink:href="#DejaVuSans-6f" x="304.244141"/>
      <use xlink:href="#DejaVuSans-63" x="365.425781"/>
      <use xlink:href="#DejaVuSans-74" x="420.40625"/>
      <use xlink:href="#DejaVuSans-6f" x="459.615234"/>
      <use xlink:href="#DejaVuSans-6e" x="520.796875"/>
      <use xlink:href="#DejaVuSans-75" x="584.175781"/>
      <use xlink:href="#DejaVuSans-73" x="647.554688"/>
      <use xlink:href="#DejaVuSans-5f" x="699.654297"/>
      <use xlink:href="#DejaVuSans-76" x="749.654297"/>
      <use xlink:href="#DejaVuSans-61" x="808.833984"/>
      <use xlink:href="#DejaVuSans-6c" x="870.113281"/>
      <use xlink:href="#DejaVuSans-65" x="897.896484"/>
      <use xlink:href="#DejaVuSans-6e" x="959.419922"/>
      <use xlink:href="#DejaVuSans-73" x="1022.798828"/>
      <use xlink:href="#DejaVuSans-3a" x="1074.898438"/>
      <use xlink:href="#DejaVuSans-20" x="1108.589844"/>
      <use xlink:href="#DejaVuSans-31" x="1140.376953"/>
      <use xlink:href="#DejaVuSans-39" x="1204"/>
      <use xlink:href="#DejaVuSans-35" x="1267.623047"/>
      <use xlink:href="#DejaVuSans-36" x="1331.246094"/>
     </g>
    </g>
    <g id="patch_10">
     <path d="M 798.005937 88.482187 
L 818.005937 88.482187 
L 818.005937 81.482187 
L 798.005937 81.482187 
z
" style="fill: #1f77b4; opacity: 0.7"/>
    </g>
    <g id="text_12">
     <!-- Ips_sexdentatus: 1689 -->
     <g transform="translate(826.005937 88.482187) scale(0.1 -0.1)">
      <defs>
       <path id="DejaVuSans-78" d="M 3513 3500 
L 2247 1797 
L 3578 0 
L 2900 0 
L 1881 1375 
L 863 0 
L 184 0 
L 1544 1831 
L 300 3500 
L 978 3500 
L 1906 2253 
L 2834 3500 
L 3513 3500 
z
" transform="scale(0.015625)"/>
      </defs>
      <use xlink:href="#DejaVuSans-49"/>
      <use xlink:href="#DejaVuSans-70" x="29.492188"/>
      <use xlink:href="#DejaVuSans-73" x="92.96875"/>
      <use xlink:href="#DejaVuSans-5f" x="145.068359"/>
      <use xlink:href="#DejaVuSans-73" x="195.068359"/>
      <use xlink:href="#DejaVuSans-65" x="247.167969"/>
      <use xlink:href="#DejaVuSans-78" x="306.941406"/>
      <use xlink:href="#DejaVuSans-64" x="366.121094"/>
      <use xlink:href="#DejaVuSans-65" x="429.597656"/>
      <use xlink:href="#DejaVuSans-6e" x="491.121094"/>
      <use xlink:href="#DejaVuSans-74" x="554.5"/>
      <use xlink:href="#DejaVuSans-61" x="593.708984"/>
      <use xlink:href="#DejaVuSans-74" x="654.988281"/>
      <use xlink:href="#DejaVuSans-75" x="694.197266"/>
      <use xlink:href="#DejaVuSans-73" x="757.576172"/>
      <use xlink:href="#DejaVuSans-3a" x="809.675781"/>
      <use xlink:href="#DejaVuSans-20" x="843.367188"/>
      <use xlink:href="#DejaVuSans-31" x="875.154297"/>
      <use xlink:href="#DejaVuSans-36" x="938.777344"/>
      <use xlink:href="#DejaVuSans-38" x="1002.400391"/>
      <use xlink:href="#DejaVuSans-39" x="1066.023438"/>
     </g>
    </g>
    <g id="patch_11">
     <path d="M 798.005937 103.438437 
L 818.005937 103.438437 
L 818.005937 96.438437 
L 798.005937 96.438437 
z
" style="fill: #1f77b4; opacity: 0.7"/>
    </g>
    <g id="text_13">
     <!-- Ips_acuminatus: 1071 -->
     <g transform="translate(826.005937 103.438437) scale(0.1 -0.1)">
      <defs>
       <path id="DejaVuSans-37" d="M 525 4666 
L 3525 4666 
L 3525 4397 
L 1831 0 
L 1172 0 
L 2766 4134 
L 525 4134 
L 525 4666 
z
" transform="scale(0.015625)"/>
      </defs>
      <use xlink:href="#DejaVuSans-49"/>
      <use xlink:href="#DejaVuSans-70" x="29.492188"/>
      <use xlink:href="#DejaVuSans-73" x="92.96875"/>
      <use xlink:href="#DejaVuSans-5f" x="145.068359"/>
      <use xlink:href="#DejaVuSans-61" x="195.068359"/>
      <use xlink:href="#DejaVuSans-63" x="256.347656"/>
      <use xlink:href="#DejaVuSans-75" x="311.328125"/>
      <use xlink:href="#DejaVuSans-6d" x="374.707031"/>
      <use xlink:href="#DejaVuSans-69" x="472.119141"/>
      <use xlink:href="#DejaVuSans-6e" x="499.902344"/>
      <use xlink:href="#DejaVuSans-61" x="563.28125"/>
      <use xlink:href="#DejaVuSans-74" x="624.560547"/>
      <use xlink:href="#DejaVuSans-75" x="663.769531"/>
      <use xlink:href="#DejaVuSans-73" x="727.148438"/>
      <use xlink:href="#DejaVuSans-3a" x="779.248047"/>
      <use xlink:href="#DejaVuSans-20" x="812.939453"/>
      <use xlink:href="#DejaVuSans-31" x="844.726562"/>
      <use xlink:href="#DejaVuSans-30" x="908.349609"/>
      <use xlink:href="#DejaVuSans-37" x="971.972656"/>
      <use xlink:href="#DejaVuSans-31" x="1035.595703"/>
     </g>
    </g>
    <g id="patch_12">
     <path d="M 798.005937 118.394687 
L 818.005937 118.394687 
L 818.005937 111.394687 
L 798.005937 111.394687 
z
" style="fill: #1f77b4; opacity: 0.7"/>
    </g>
    <g id="text_14">
     <!-- Hylesinus_varius: 580 -->
     <g transform="translate(826.005937 118.394687) scale(0.1 -0.1)">
      <defs>
       <path id="DejaVuSans-48" d="M 628 4666 
L 1259 4666 
L 1259 2753 
L 3553 2753 
L 3553 4666 
L 4184 4666 
L 4184 0 
L 3553 0 
L 3553 2222 
L 1259 2222 
L 1259 0 
L 628 0 
L 628 4666 
z
" transform="scale(0.015625)"/>
      </defs>
      <use xlink:href="#DejaVuSans-48"/>
      <use xlink:href="#DejaVuSans-79" x="75.195312"/>
      <use xlink:href="#DejaVuSans-6c" x="134.375"/>
      <use xlink:href="#DejaVuSans-65" x="162.158203"/>
      <use xlink:href="#DejaVuSans-73" x="223.681641"/>
      <use xlink:href="#DejaVuSans-69" x="275.78125"/>
      <use xlink:href="#DejaVuSans-6e" x="303.564453"/>
      <use xlink:href="#DejaVuSans-75" x="366.943359"/>
      <use xlink:href="#DejaVuSans-73" x="430.322266"/>
      <use xlink:href="#DejaVuSans-5f" x="482.421875"/>
      <use xlink:href="#DejaVuSans-76" x="532.421875"/>
      <use xlink:href="#DejaVuSans-61" x="591.601562"/>
      <use xlink:href="#DejaVuSans-72" x="652.880859"/>
      <use xlink:href="#DejaVuSans-69" x="693.994141"/>
      <use xlink:href="#DejaVuSans-75" x="721.777344"/>
      <use xlink:href="#DejaVuSans-73" x="785.15625"/>
      <use xlink:href="#DejaVuSans-3a" x="837.255859"/>
      <use xlink:href="#DejaVuSans-20" x="870.947266"/>
      <use xlink:href="#DejaVuSans-35" x="902.734375"/>
      <use xlink:href="#DejaVuSans-38" x="966.357422"/>
      <use xlink:href="#DejaVuSans-30" x="1029.980469"/>
     </g>
    </g>
    <g id="patch_13">
     <path d="M 798.005937 133.350937 
L 818.005937 133.350937 
L 818.005937 126.350937 
L 798.005937 126.350937 
z
" style="fill: #1f77b4; opacity: 0.7"/>
    </g>
    <g id="text_15">
     <!-- Xylosandrus_crassiusculus: 399 -->
     <g transform="translate(826.005937 133.350937) scale(0.1 -0.1)">
      <defs>
       <path id="DejaVuSans-58" d="M 403 4666 
L 1081 4666 
L 2241 2931 
L 3406 4666 
L 4084 4666 
L 2584 2425 
L 4184 0 
L 3506 0 
L 2194 1984 
L 872 0 
L 191 0 
L 1856 2491 
L 403 4666 
z
" transform="scale(0.015625)"/>
      </defs>
      <use xlink:href="#DejaVuSans-58"/>
      <use xlink:href="#DejaVuSans-79" x="68.505859"/>
      <use xlink:href="#DejaVuSans-6c" x="127.685547"/>
      <use xlink:href="#DejaVuSans-6f" x="155.46875"/>
      <use xlink:href="#DejaVuSans-73" x="216.650391"/>
      <use xlink:href="#DejaVuSans-61" x="268.75"/>
      <use xlink:href="#DejaVuSans-6e" x="330.029297"/>
      <use xlink:href="#DejaVuSans-64" x="393.408203"/>
      <use xlink:href="#DejaVuSans-72" x="456.884766"/>
      <use xlink:href="#DejaVuSans-75" x="497.998047"/>
      <use xlink:href="#DejaVuSans-73" x="561.376953"/>
      <use xlink:href="#DejaVuSans-5f" x="613.476562"/>
      <use xlink:href="#DejaVuSans-63" x="663.476562"/>
      <use xlink:href="#DejaVuSans-72" x="718.457031"/>
      <use xlink:href="#DejaVuSans-61" x="759.570312"/>
      <use xlink:href="#DejaVuSans-73" x="820.849609"/>
      <use xlink:href="#DejaVuSans-73" x="872.949219"/>
      <use xlink:href="#DejaVuSans-69" x="925.048828"/>
      <use xlink:href="#DejaVuSans-75" x="952.832031"/>
      <use xlink:href="#DejaVuSans-73" x="1016.210938"/>
      <use xlink:href="#DejaVuSans-63" x="1068.310547"/>
      <use xlink:href="#DejaVuSans-75" x="1123.291016"/>
      <use xlink:href="#DejaVuSans-6c" x="1186.669922"/>
      <use xlink:href="#DejaVuSans-75" x="1214.453125"/>
      <use xlink:href="#DejaVuSans-73" x="1277.832031"/>
      <use xlink:href="#DejaVuSans-3a" x="1329.931641"/>
      <use xlink:href="#DejaVuSans-20" x="1363.623047"/>
      <use xlink:href="#DejaVuSans-33" x="1395.410156"/>
      <use xlink:href="#DejaVuSans-39" x="1459.033203"/>
      <use xlink:href="#DejaVuSans-39" x="1522.65625"/>
     </g>
    </g>
    <g id="patch_14">
     <path d="M 798.005937 148.307187 
L 818.005937 148.307187 
L 818.005937 141.307187 
L 798.005937 141.307187 
z
" style="fill: #1f77b4; opacity: 0.7"/>
    </g>
    <g id="text_16">
     <!-- Dendroctonus_terebrans: 346 -->
     <g transform="translate(826.005937 148.307187) scale(0.1 -0.1)">
      <defs>
       <path id="DejaVuSans-34" d="M 2419 4116 
L 825 1625 
L 2419 1625 
L 2419 4116 
z
M 2253 4666 
L 3047 4666 
L 3047 1625 
L 3713 1625 
L 3713 1100 
L 3047 1100 
L 3047 0 
L 2419 0 
L 2419 1100 
L 313 1100 
L 313 1709 
L 2253 4666 
z
" transform="scale(0.015625)"/>
      </defs>
      <use xlink:href="#DejaVuSans-44"/>
      <use xlink:href="#DejaVuSans-65" x="77.001953"/>
      <use xlink:href="#DejaVuSans-6e" x="138.525391"/>
      <use xlink:href="#DejaVuSans-64" x="201.904297"/>
      <use xlink:href="#DejaVuSans-72" x="265.380859"/>
      <use xlink:href="#DejaVuSans-6f" x="304.244141"/>
      <use xlink:href="#DejaVuSans-63" x="365.425781"/>
      <use xlink:href="#DejaVuSans-74" x="420.40625"/>
      <use xlink:href="#DejaVuSans-6f" x="459.615234"/>
      <use xlink:href="#DejaVuSans-6e" x="520.796875"/>
      <use xlink:href="#DejaVuSans-75" x="584.175781"/>
      <use xlink:href="#DejaVuSans-73" x="647.554688"/>
      <use xlink:href="#DejaVuSans-5f" x="699.654297"/>
      <use xlink:href="#DejaVuSans-74" x="749.654297"/>
      <use xlink:href="#DejaVuSans-65" x="788.863281"/>
      <use xlink:href="#DejaVuSans-72" x="850.386719"/>
      <use xlink:href="#DejaVuSans-65" x="889.25"/>
      <use xlink:href="#DejaVuSans-62" x="950.773438"/>
      <use xlink:href="#DejaVuSans-72" x="1014.25"/>
      <use xlink:href="#DejaVuSans-61" x="1055.363281"/>
      <use xlink:href="#DejaVuSans-6e" x="1116.642578"/>
      <use xlink:href="#DejaVuSans-73" x="1180.021484"/>
      <use xlink:href="#DejaVuSans-3a" x="1232.121094"/>
      <use xlink:href="#DejaVuSans-20" x="1265.8125"/>
      <use xlink:href="#DejaVuSans-33" x="1297.599609"/>
      <use xlink:href="#DejaVuSans-34" x="1361.222656"/>
      <use xlink:href="#DejaVuSans-36" x="1424.845703"/>
     </g>
    </g>
    <g id="patch_15">
     <path d="M 798.005937 163.263437 
L 818.005937 163.263437 
L 818.005937 156.263437 
L 798.005937 156.263437 
z
" style="fill: #1f77b4; opacity: 0.7"/>
    </g>
    <g id="text_17">
     <!-- Monarthrum_fasciatum: 313 -->
     <g transform="translate(826.005937 163.263437) scale(0.1 -0.1)">
      <defs>
       <path id="DejaVuSans-4d" d="M 628 4666 
L 1569 4666 
L 2759 1491 
L 3956 4666 
L 4897 4666 
L 4897 0 
L 4281 0 
L 4281 4097 
L 3078 897 
L 2444 897 
L 1241 4097 
L 1241 0 
L 628 0 
L 628 4666 
z
" transform="scale(0.015625)"/>
      </defs>
      <use xlink:href="#DejaVuSans-4d"/>
      <use xlink:href="#DejaVuSans-6f" x="86.279297"/>
      <use xlink:href="#DejaVuSans-6e" x="147.460938"/>
      <use xlink:href="#DejaVuSans-61" x="210.839844"/>
      <use xlink:href="#DejaVuSans-72" x="272.119141"/>
      <use xlink:href="#DejaVuSans-74" x="313.232422"/>
      <use xlink:href="#DejaVuSans-68" x="352.441406"/>
      <use xlink:href="#DejaVuSans-72" x="415.820312"/>
      <use xlink:href="#DejaVuSans-75" x="456.933594"/>
      <use xlink:href="#DejaVuSans-6d" x="520.3125"/>
      <use xlink:href="#DejaVuSans-5f" x="617.724609"/>
      <use xlink:href="#DejaVuSans-66" x="667.724609"/>
      <use xlink:href="#DejaVuSans-61" x="702.929688"/>
      <use xlink:href="#DejaVuSans-73" x="764.208984"/>
      <use xlink:href="#DejaVuSans-63" x="816.308594"/>
      <use xlink:href="#DejaVuSans-69" x="871.289062"/>
      <use xlink:href="#DejaVuSans-61" x="899.072266"/>
      <use xlink:href="#DejaVuSans-74" x="960.351562"/>
      <use xlink:href="#DejaVuSans-75" x="999.560547"/>
      <use xlink:href="#DejaVuSans-6d" x="1062.939453"/>
      <use xlink:href="#DejaVuSans-3a" x="1160.351562"/>
      <use xlink:href="#DejaVuSans-20" x="1194.042969"/>
      <use xlink:href="#DejaVuSans-33" x="1225.830078"/>
      <use xlink:href="#DejaVuSans-31" x="1289.453125"/>
      <use xlink:href="#DejaVuSans-33" x="1353.076172"/>
     </g>
    </g>
    <g id="patch_16">
     <path d="M 798.005937 178.219687 
L 818.005937 178.219687 
L 818.005937 171.219687 
L 798.005937 171.219687 
z
" style="fill: #1f77b4; opacity: 0.7"/>
    </g>
    <g id="text_18">
     <!-- Platypus_cylindrus: 286 -->
     <g transform="translate(826.005937 178.219687) scale(0.1 -0.1)">
      <defs>
       <path id="DejaVuSans-50" d="M 1259 4147 
L 1259 2394 
L 2053 2394 
Q 2494 2394 2734 2622 
Q 2975 2850 2975 3272 
Q 2975 3691 2734 3919 
Q 2494 4147 2053 4147 
L 1259 4147 
z
M 628 4666 
L 2053 4666 
Q 2838 4666 3239 4311 
Q 3641 3956 3641 3272 
Q 3641 2581 3239 2228 
Q 2838 1875 2053 1875 
L 1259 1875 
L 1259 0 
L 628 0 
L 628 4666 
z
" transform="scale(0.015625)"/>
      </defs>
      <use xlink:href="#DejaVuSans-50"/>
      <use xlink:href="#DejaVuSans-6c" x="60.302734"/>
      <use xlink:href="#DejaVuSans-61" x="88.085938"/>
      <use xlink:href="#DejaVuSans-74" x="149.365234"/>
      <use xlink:href="#DejaVuSans-79" x="188.574219"/>
      <use xlink:href="#DejaVuSans-70" x="247.753906"/>
      <use xlink:href="#DejaVuSans-75" x="311.230469"/>
      <use xlink:href="#DejaVuSans-73" x="374.609375"/>
      <use xlink:href="#DejaVuSans-5f" x="426.708984"/>
      <use xlink:href="#DejaVuSans-63" x="476.708984"/>
      <use xlink:href="#DejaVuSans-79" x="531.689453"/>
      <use xlink:href="#DejaVuSans-6c" x="590.869141"/>
      <use xlink:href="#DejaVuSans-69" x="618.652344"/>
      <use xlink:href="#DejaVuSans-6e" x="646.435547"/>
      <use xlink:href="#DejaVuSans-64" x="709.814453"/>
      <use xlink:href="#DejaVuSans-72" x="773.291016"/>
      <use xlink:href="#DejaVuSans-75" x="814.404297"/>
      <use xlink:href="#DejaVuSans-73" x="877.783203"/>
      <use xlink:href="#DejaVuSans-3a" x="929.882812"/>
      <use xlink:href="#DejaVuSans-20" x="963.574219"/>
      <use xlink:href="#DejaVuSans-32" x="995.361328"/>
      <use xlink:href="#DejaVuSans-38" x="1058.984375"/>
      <use xlink:href="#DejaVuSans-36" x="1122.607422"/>
     </g>
    </g>
    <g id="patch_17">
     <path d="M 798.005937 193.175937 
L 818.005937 193.175937 
L 818.005937 186.175937 
L 798.005937 186.175937 
z
" style="fill: #1f77b4; opacity: 0.7"/>
    </g>
    <g id="text_19">
     <!-- Phloeosinus_dentatus: 284 -->
     <g transform="translate(826.005937 193.175937) scale(0.1 -0.1)">
      <use xlink:href="#DejaVuSans-50"/>
      <use xlink:href="#DejaVuSans-68" x="60.302734"/>
      <use xlink:href="#DejaVuSans-6c" x="123.681641"/>
      <use xlink:href="#DejaVuSans-6f" x="151.464844"/>
      <use xlink:href="#DejaVuSans-65" x="212.646484"/>
      <use xlink:href="#DejaVuSans-6f" x="274.169922"/>
      <use xlink:href="#DejaVuSans-73" x="335.351562"/>
      <use xlink:href="#DejaVuSans-69" x="387.451172"/>
      <use xlink:href="#DejaVuSans-6e" x="415.234375"/>
      <use xlink:href="#DejaVuSans-75" x="478.613281"/>
      <use xlink:href="#DejaVuSans-73" x="541.992188"/>
      <use xlink:href="#DejaVuSans-5f" x="594.091797"/>
      <use xlink:href="#DejaVuSans-64" x="644.091797"/>
      <use xlink:href="#DejaVuSans-65" x="707.568359"/>
      <use xlink:href="#DejaVuSans-6e" x="769.091797"/>
      <use xlink:href="#DejaVuSans-74" x="832.470703"/>
      <use xlink:href="#DejaVuSans-61" x="871.679688"/>
      <use xlink:href="#DejaVuSans-74" x="932.958984"/>
      <use xlink:href="#DejaVuSans-75" x="972.167969"/>
      <use xlink:href="#DejaVuSans-73" x="1035.546875"/>
      <use xlink:href="#DejaVuSans-3a" x="1087.646484"/>
      <use xlink:href="#DejaVuSans-20" x="1121.337891"/>
      <use xlink:href="#DejaVuSans-32" x="1153.125"/>
      <use xlink:href="#DejaVuSans-38" x="1216.748047"/>
      <use xlink:href="#DejaVuSans-34" x="1280.371094"/>
     </g>
    </g>
   </g>
  </g>
 </g>
 <defs>
  <clipPath id="p0a8cdfe144">
   <rect x="57.199375" y="25.3575" width="936.43" height="519.2"/>
  </clipPath>
 </defs>
</svg>
